<?xml version="1.0" standalone="no"?>
<!DOCTYPE svg PUBLIC "-//W3C//DTD SVG 1.1//EN" "http://www.w3.org/Graphics/SVG/1.1/DTD/svg11.dtd" >
<svg>
<metadata>
Created by FontForge 20090914 at Thu Feb 11 05:27:03 2021
 By www-data
Copyright 2020 Aditya Bayu Perdana. All Rights Reserved.
</metadata>
<defs>
<font id="Vimala" horiz-adv-x="0" >
  <font-face 
    font-family="Vimala"
    font-weight="400"
    font-stretch="normal"
    units-per-em="1000"
    panose-1="2 2 5 2 6 5 5 2 2 4"
    ascent="800"
    descent="-200"
    bbox="-1459 -895 2349 1140"
    underline-thickness="50"
    underline-position="-75"
    unicode-range="U+0020-U+25CC"
  />
<missing-glyph horiz-adv-x="600" 
d="M94 0v714h411v-714h-411zM145 663v-612h309v612h-309z" />
    <glyph glyph-name="uni1B34_uni1B02" unicode="&#x1b34;&#x1b02;" 
d="M-573 530c-41.333 0 -62.001 17 -62.001 51c0 12 2.66699 26.333 8 43c12.667 -31.333 46.334 -47 101.001 -47l25 1c-19.333 -29.333 -40.333 -45 -63 -47zM-413.001 530c-41.333 0 -62.001 17 -62.001 51c0 12 2.66699 26.333 8 43
c12.667 -31.333 46.334 -47 101.001 -47l25 1c-19.333 -29.333 -40.333 -45 -63 -47zM-513.002 640c-41.333 0 -62.001 17 -62.001 51c0 12 2.66699 26.333 8 43c12.667 -31.333 46.334 -47 101.001 -47l25 1c-19.333 -29.333 -40.333 -45 -63 -47zM-225.003 542
c-31.333 98.667 -82.667 183 -154 253l38 59c39.333 -24 70 -65.833 92 -125.5s36 -120.5 42 -182.5z" />
    <glyph glyph-name="uni1B34_uni1B03" unicode="&#x1b34;&#x1b03;" 
d="M4 533c-66.667 13.333 -136.166 60.8301 -208.499 142.497s-116.5 180.834 -132.5 297.501l80 -21c25.333 -99.333 64.166 -185.666 116.499 -258.999s102.5 -120.666 150.5 -141.999zM-472.999 529.997c-41.333 0 -62.001 17 -62.001 51c0 12 2.66699 26.333 8 43
c12.667 -31.333 46.334 -47 101.001 -47l25 1c-19.333 -29.333 -40.333 -45 -63 -47zM-313 529.997c-41.333 0 -62.001 17 -62.001 51c0 12 2.66699 26.333 8 43c12.667 -31.333 46.334 -47 101.001 -47l25 1c-19.333 -29.333 -40.333 -45 -63 -47zM-413.001 639.997
c-41.333 0 -62.001 17 -62.001 51c0 12 2.66699 26.333 8 43c12.667 -31.333 46.334 -47 101.001 -47l25 1c-19.333 -29.333 -40.333 -45 -63 -47z" />
    <glyph glyph-name="uni1B34_uni1B36" unicode="&#x1b34;&#x1b36;" 
d="M-331 529c-76.667 30.667 -147.332 87.002 -211.999 169.002l21 22c40.667 -44.667 71.334 -74.334 92.001 -89.001c-17.333 32 -26 63.667 -26 95l2 23c6.66699 47.333 27 85.666 61 114.999s74 44 120 44c50 0 91.667 -16.667 125 -50s50 -75.333 50 -126v-10
c-2.66699 -42.667 -12.834 -78 -30.501 -106s-43.5 -55.667 -77.5 -83l-13 12c39.333 46 60.666 88 63.999 126l1 24c0 38.667 -11.167 69.167 -33.5 91.5s-53.5 33.5 -93.5 33.5l-26 -2c-61.333 -11.333 -94 -48 -98 -110l-1 -14c0 -57.333 28.333 -104.333 85 -141z
M-759.998 527.002c-41.333 0 -62.001 17 -62.001 51c0 12 2.66699 26.333 8 43c12.667 -31.333 46.334 -47 101.001 -47l25 1c-19.333 -29.333 -40.333 -45 -63 -47zM-599.999 527.002c-41.333 0 -62.001 17 -62.001 51c0 12 2.66699 26.333 8 43
c12.667 -31.333 46.334 -47 101.001 -47l25 1c-19.333 -29.333 -40.333 -45 -63 -47zM-700 637.002c-41.333 0 -62.001 17 -62.001 51c0 12 2.66699 26.333 8 43c12.667 -31.333 46.334 -47 101.001 -47l25 1c-19.333 -29.333 -40.333 -45 -63 -47z" />
    <glyph glyph-name="uni1B34_uni1B36_uni1B02" unicode="&#x1b34;&#x1b36;&#x1b02;" 
d="M-561 529c-76.667 30.667 -147.332 87.002 -211.999 169.002l21 22c40.667 -44.667 71.334 -74.334 92.001 -89.001c-17.333 32 -26 63.667 -26 95l2 23c6.66699 47.333 27 85.666 61 114.999s74 44 120 44c50 0 91.667 -16.667 125 -50s50 -75.333 50 -126v-10
c-2.66699 -42.667 -12.834 -78 -30.501 -106s-43.5 -55.667 -77.5 -83l-13 12c39.333 46 60.666 88 63.999 126l1 24c0 38.667 -11.167 69.167 -33.5 91.5s-53.5 33.5 -93.5 33.5l-26 -2c-61.333 -11.333 -94 -48 -98 -110l-1 -14c0 -57.333 28.333 -104.333 85 -141z
M-124.998 542.002c-31.333 98.667 -82.667 183 -154 253l38 59c39.333 -24 70 -65.833 92 -125.5s36 -120.5 42 -182.5zM-972.999 530.002c-41.333 0 -62.001 17 -62.001 51c0 12 2.66699 26.333 8 43c12.667 -31.333 46.334 -47 101.001 -47l25 1
c-19.333 -29.333 -40.333 -45 -63 -47zM-813 530.002c-41.333 0 -62.001 17 -62.001 51c0 12 2.66699 26.333 8 43c12.667 -31.333 46.334 -47 101.001 -47l25 1c-19.333 -29.333 -40.333 -45 -63 -47zM-913.001 640.002c-41.333 0 -62.001 17 -62.001 51
c0 12 2.66699 26.333 8 43c12.667 -31.333 46.334 -47 101.001 -47l25 1c-19.333 -29.333 -40.333 -45 -63 -47z" />
    <glyph glyph-name="uni1B34_uni1B36_uni1B03" unicode="&#x1b34;&#x1b36;&#x1b03;" 
d="M-561 529c-76.667 30.667 -147.332 87.002 -211.999 169.002l21 22c40.667 -44.667 71.334 -74.334 92.001 -89.001c-17.333 32 -26 63.667 -26 95l2 23c6.66699 47.333 27 85.666 61 114.999s74 44 120 44c50 0 91.667 -16.667 125 -50s50 -75.333 50 -126v-10
c-2.66699 -42.667 -12.834 -78 -30.501 -106s-43.5 -55.667 -77.5 -83l-13 12c39.333 46 60.666 88 63.999 126l1 24c0 38.667 -11.167 69.167 -33.5 91.5s-53.5 33.5 -93.5 33.5l-26 -2c-61.333 -11.333 -94 -48 -98 -110l-1 -14c0 -57.333 28.333 -104.333 85 -141z
M4.00195 533.002c-66.667 13.333 -136.166 60.8301 -208.499 142.497s-116.5 180.834 -132.5 297.501l80 -21c25.333 -99.333 64.166 -185.666 116.499 -258.999s102.5 -120.666 150.5 -141.999zM-972.997 529.999c-41.333 0 -62.001 17 -62.001 51
c0 12 2.66699 26.333 8 43c12.667 -31.333 46.334 -47 101.001 -47l25 1c-19.333 -29.333 -40.333 -45 -63 -47zM-812.998 529.999c-41.333 0 -62.001 17 -62.001 51c0 12 2.66699 26.333 8 43c12.667 -31.333 46.334 -47 101.001 -47l25 1
c-19.333 -29.333 -40.333 -45 -63 -47zM-912.999 639.999c-41.333 0 -62.001 17 -62.001 51c0 12 2.66699 26.333 8 43c12.667 -31.333 46.334 -47 101.001 -47l25 1c-19.333 -29.333 -40.333 -45 -63 -47z" />
    <glyph glyph-name="uni1B34_uni1B37" unicode="&#x1b34;&#x1b37;" 
d="M-246 551c-30 82 -65.333 142 -106 180l42 50c49.333 -33.333 76 -107.333 80 -222zM-331 529c-76.667 30.667 -147.332 87.002 -211.999 169.002l21 22c40.667 -44.667 71.334 -74.334 92.001 -89.001c-17.333 32 -26 63.667 -26 95l2 23
c6.66699 47.333 27 85.666 61 114.999s74 44 120 44c50 0 91.667 -16.667 125 -50s50 -75.333 50 -126v-10c-2.66699 -42.667 -12.834 -78 -30.501 -106s-43.5 -55.667 -77.5 -83l-13 12c39.333 46 60.666 88 63.999 126l1 24c0 38.667 -11.167 69.167 -33.5 91.5
s-53.5 33.5 -93.5 33.5l-26 -2c-61.333 -11.333 -94 -48 -98 -110l-1 -14c0 -57.333 28.333 -104.333 85 -141zM-330.998 529.002c-76.667 30.667 -147.332 87.002 -211.999 169.002l21 22c40.667 -44.667 71.334 -74.334 92.001 -89.001c-17.333 32 -26 63.667 -26 95l2 23
c6.66699 47.333 27 85.666 61 114.999s74 44 120 44c50 0 91.667 -16.667 125 -50s50 -75.333 50 -126v-10c-2.66699 -42.667 -12.834 -78 -30.501 -106s-43.5 -55.667 -77.5 -83l-13 12c39.333 46 60.666 88 63.999 126l1 24c0 38.667 -11.167 69.167 -33.5 91.5
s-53.5 33.5 -93.5 33.5l-26 -2c-61.333 -11.333 -94 -48 -98 -110l-1 -14c0 -57.333 28.333 -104.333 85 -141zM-759.996 527.004c-41.333 0 -62.001 17 -62.001 51c0 12 2.66699 26.333 8 43c12.667 -31.333 46.334 -47 101.001 -47l25 1
c-19.333 -29.333 -40.333 -45 -63 -47zM-599.997 527.004c-41.333 0 -62.001 17 -62.001 51c0 12 2.66699 26.333 8 43c12.667 -31.333 46.334 -47 101.001 -47l25 1c-19.333 -29.333 -40.333 -45 -63 -47zM-699.998 637.004c-41.333 0 -62.001 17 -62.001 51
c0 12 2.66699 26.333 8 43c12.667 -31.333 46.334 -47 101.001 -47l25 1c-19.333 -29.333 -40.333 -45 -63 -47z" />
    <glyph glyph-name="uni1B34_uni1B37_uni1B02" unicode="&#x1b34;&#x1b37;&#x1b02;" 
d="M-561 529c-76.667 30.667 -147.332 87.002 -211.999 169.002l21 22c40.667 -44.667 71.334 -74.334 92.001 -89.001c-17.333 32 -26 63.667 -26 95l2 23c6.66699 47.333 27 85.666 61 114.999s74 44 120 44c50 0 91.667 -16.667 125 -50s50 -75.333 50 -126v-10
c-2.66699 -42.667 -12.834 -78 -30.501 -106s-43.5 -55.667 -77.5 -83l-13 12c39.333 46 60.666 88 63.999 126l1 24c0 38.667 -11.167 69.167 -33.5 91.5s-53.5 33.5 -93.5 33.5l-26 -2c-61.333 -11.333 -94 -48 -98 -110l-1 -14c0 -57.333 28.333 -104.333 85 -141z
M-124.998 542.002c-31.333 98.667 -82.667 183 -154 253l38 59c39.333 -24 70 -65.833 92 -125.5s36 -120.5 42 -182.5zM-972.999 530.002c-41.333 0 -62.001 17 -62.001 51c0 12 2.66699 26.333 8 43c12.667 -31.333 46.334 -47 101.001 -47l25 1
c-19.333 -29.333 -40.333 -45 -63 -47zM-813 530.002c-41.333 0 -62.001 17 -62.001 51c0 12 2.66699 26.333 8 43c12.667 -31.333 46.334 -47 101.001 -47l25 1c-19.333 -29.333 -40.333 -45 -63 -47zM-913.001 640.002c-41.333 0 -62.001 17 -62.001 51
c0 12 2.66699 26.333 8 43c12.667 -31.333 46.334 -47 101.001 -47l25 1c-19.333 -29.333 -40.333 -45 -63 -47zM-476.002 551.002c-30 82 -65.333 142 -106 180l42 50c49.333 -33.333 76 -107.333 80 -222zM-561.002 529.002
c-76.667 30.667 -147.332 87.002 -211.999 169.002l21 22c40.667 -44.667 71.334 -74.334 92.001 -89.001c-17.333 32 -26 63.667 -26 95l2 23c6.66699 47.333 27 85.666 61 114.999s74 44 120 44c50 0 91.667 -16.667 125 -50s50 -75.333 50 -126v-10
c-2.66699 -42.667 -12.834 -78 -30.501 -106s-43.5 -55.667 -77.5 -83l-13 12c39.333 46 60.666 88 63.999 126l1 24c0 38.667 -11.167 69.167 -33.5 91.5s-53.5 33.5 -93.5 33.5l-26 -2c-61.333 -11.333 -94 -48 -98 -110l-1 -14c0 -57.333 28.333 -104.333 85 -141z" />
    <glyph glyph-name="uni1B34_uni1B37_uni1B03" unicode="&#x1b34;&#x1b37;&#x1b03;" 
d="M-561 529c-76.667 30.667 -147.332 87.002 -211.999 169.002l21 22c40.667 -44.667 71.334 -74.334 92.001 -89.001c-17.333 32 -26 63.667 -26 95l2 23c6.66699 47.333 27 85.666 61 114.999s74 44 120 44c50 0 91.667 -16.667 125 -50s50 -75.333 50 -126v-10
c-2.66699 -42.667 -12.834 -78 -30.501 -106s-43.5 -55.667 -77.5 -83l-13 12c39.333 46 60.666 88 63.999 126l1 24c0 38.667 -11.167 69.167 -33.5 91.5s-53.5 33.5 -93.5 33.5l-26 -2c-61.333 -11.333 -94 -48 -98 -110l-1 -14c0 -57.333 28.333 -104.333 85 -141z
M4.00195 533.002c-66.667 13.333 -136.166 60.8301 -208.499 142.497s-116.5 180.834 -132.5 297.501l80 -21c25.333 -99.333 64.166 -185.666 116.499 -258.999s102.5 -120.666 150.5 -141.999zM-972.997 529.999c-41.333 0 -62.001 17 -62.001 51
c0 12 2.66699 26.333 8 43c12.667 -31.333 46.334 -47 101.001 -47l25 1c-19.333 -29.333 -40.333 -45 -63 -47zM-812.998 529.999c-41.333 0 -62.001 17 -62.001 51c0 12 2.66699 26.333 8 43c12.667 -31.333 46.334 -47 101.001 -47l25 1
c-19.333 -29.333 -40.333 -45 -63 -47zM-912.999 639.999c-41.333 0 -62.001 17 -62.001 51c0 12 2.66699 26.333 8 43c12.667 -31.333 46.334 -47 101.001 -47l25 1c-19.333 -29.333 -40.333 -45 -63 -47zM-476 550.999c-30 82 -65.333 142 -106 180l42 50
c49.333 -33.333 76 -107.333 80 -222zM-561 528.999c-76.667 30.667 -147.332 87.002 -211.999 169.002l21 22c40.667 -44.667 71.334 -74.334 92.001 -89.001c-17.333 32 -26 63.667 -26 95l2 23c6.66699 47.333 27 85.666 61 114.999s74 44 120 44
c50 0 91.667 -16.667 125 -50s50 -75.333 50 -126v-10c-2.66699 -42.667 -12.834 -78 -30.501 -106s-43.5 -55.667 -77.5 -83l-13 12c39.333 46 60.666 88 63.999 126l1 24c0 38.667 -11.167 69.167 -33.5 91.5s-53.5 33.5 -93.5 33.5l-26 -2
c-61.333 -11.333 -94 -48 -98 -110l-1 -14c0 -57.333 28.333 -104.333 85 -141z" />
    <glyph glyph-name="uni1B34_uni1B42" unicode="&#x1b34;&#x1b42;" 
d="M-693 730c-41.333 0 -62.001 17 -62.001 51c0 12 2.66699 26.333 8 43c12.667 -31.333 46.334 -47 101.001 -47l25 1c-19.333 -29.333 -40.333 -45 -63 -47zM-533.001 730c-41.333 0 -62.001 17 -62.001 51c0 12 2.66699 26.333 8 43
c12.667 -31.333 46.334 -47 101.001 -47l25 1c-19.333 -29.333 -40.333 -45 -63 -47zM-633.002 840c-41.333 0 -62.001 17 -62.001 51c0 12 2.66699 26.333 8 43c12.667 -31.333 46.334 -47 101.001 -47l25 1c-19.333 -29.333 -40.333 -45 -63 -47zM-443.003 512
c-121.333 14.667 -181.999 74 -181.999 178v38l25 2c8.66699 -94.667 51.667 -154.334 129 -179.001c-4.66699 30.667 -7 59.334 -7 86.001c0 70 18.667 125.167 56 165.5s87 60.5 149 60.5l26 -1c74 -6.66699 128.667 -39.667 164 -99v-8l-337 -168l-8 20l236 143
c-18.667 24 -54.334 36.667 -107.001 38c-96.667 0 -145 -77.667 -145 -233z" />
    <glyph glyph-name="uni1B34_uni1B42_uni1B02" unicode="&#x1b34;&#x1b42;&#x1b02;" 
d="M-583 512c-121.333 14.667 -181.999 74 -181.999 178v38l25 2c8.66699 -94.667 51.667 -154.334 129 -179.001c-4.66699 30.667 -7 59.334 -7 86.001c0 70 18.667 125.167 56 165.5s87 60.5 149 60.5l26 -1c74 -6.66699 128.667 -39.667 164 -99v-8l-337 -168l-8 20
l236 143c-18.667 24 -54.334 36.667 -107.001 38c-96.667 0 -145 -77.667 -145 -233zM-24.999 542c-31.333 98.667 -82.667 183 -154 253l38 59c39.333 -24 70 -65.833 92 -125.5s36 -120.5 42 -182.5zM-833 730c-41.333 0 -62.001 17 -62.001 51c0 12 2.66699 26.333 8 43
c12.667 -31.333 46.334 -47 101.001 -47l25 1c-19.333 -29.333 -40.333 -45 -63 -47zM-673.001 730c-41.333 0 -62.001 17 -62.001 51c0 12 2.66699 26.333 8 43c12.667 -31.333 46.334 -47 101.001 -47l25 1c-19.333 -29.333 -40.333 -45 -63 -47zM-773.002 840
c-41.333 0 -62.001 17 -62.001 51c0 12 2.66699 26.333 8 43c12.667 -31.333 46.334 -47 101.001 -47l25 1c-19.333 -29.333 -40.333 -45 -63 -47zM-583.003 512c-121.333 14.667 -181.999 74 -181.999 178v38l25 2c8.66699 -94.667 51.667 -154.334 129 -179.001
c-4.66699 30.667 -7 59.334 -7 86.001c0 70 18.667 125.167 56 165.5s87 60.5 149 60.5l26 -1c74 -6.66699 128.667 -39.667 164 -99v-8l-337 -168l-8 20l236 143c-18.667 24 -54.334 36.667 -107.001 38c-96.667 0 -145 -77.667 -145 -233z" />
    <glyph glyph-name="uni1B34_uni1B42_uni1B03" unicode="&#x1b34;&#x1b42;&#x1b03;" 
d="M4 533c-66.667 13.333 -136.166 60.8301 -208.499 142.497s-116.5 180.834 -132.5 297.501l80 -21c25.333 -99.333 64.166 -185.666 116.499 -258.999s102.5 -120.666 150.5 -141.999zM-662.999 511.997c-121.333 14.667 -181.999 74 -181.999 178v38l25 2
c8.66699 -94.667 51.667 -154.334 129 -179.001c-4.66699 30.667 -7 59.334 -7 86.001c0 70 18.667 125.167 56 165.5s87 60.5 149 60.5l26 -1c74 -6.66699 128.667 -39.667 164 -99v-8l-337 -168l-8 20l236 143c-18.667 24 -54.334 36.667 -107.001 38
c-96.667 0 -145 -77.667 -145 -233zM-922.998 729.997c-41.333 0 -62.001 17 -62.001 51c0 12 2.66699 26.333 8 43c12.667 -31.333 46.334 -47 101.001 -47l25 1c-19.333 -29.333 -40.333 -45 -63 -47zM-762.999 729.997c-41.333 0 -62.001 17 -62.001 51
c0 12 2.66699 26.333 8 43c12.667 -31.333 46.334 -47 101.001 -47l25 1c-19.333 -29.333 -40.333 -45 -63 -47zM-863 839.997c-41.333 0 -62.001 17 -62.001 51c0 12 2.66699 26.333 8 43c12.667 -31.333 46.334 -47 101.001 -47l25 1c-19.333 -29.333 -40.333 -45 -63 -47
z" />
    <glyph glyph-name="uni1B36_uni1B00" unicode="&#x1b36;&#x1b00;" 
d="M-531 667c30 -28.667 56.667 -51.332 80 -67.999c-11.333 21.333 -17 43 -17 65l1 17c8.66699 62.667 53.334 94 134.001 94c40.667 0 71.334 -10 92.001 -30c22 -20.667 33.333 -43.334 34 -68.001v-10c0 -48.667 -24 -93.667 -72 -135l-11 11
c29.333 31.333 44 63.333 44 96v8c-3.33301 41.333 -35 62 -95 62c-56.667 0 -87.334 -21.333 -92.001 -64v-10c0 -34 20.667 -62.667 62 -86l-9 -20c-62.667 22 -121.334 59.667 -176.001 113zM-250 803.002c22.667 30.667 34.001 62.667 34.001 96v8
c-3.33301 66 -46 100 -128 102c-82 -2 -124.667 -36 -128 -102v-8c0 -33.333 11.333 -65.333 34 -96l-11 -11c-34.667 40.667 -52 85.667 -52 135v10c3.33301 92 55.666 138 156.999 138c102 0 154.333 -46 157 -138v-10c0 -49.333 -17.333 -94.333 -52 -135z
M-341.999 972.002c55.333 -1.33301 86.333 -23.666 93 -66.999l1 -16c0 -34.667 -17.333 -63.334 -52 -86.001l-6 12c18.667 14.667 28 30.667 28 48c0 33.333 -20 50 -60 50h-10c-40 0 -60 -16.667 -60 -50c0 -17.333 9.33301 -33.333 28 -48l-6 -12
c-34.667 22.667 -52 51.334 -52 86.001l1 16c6.66699 43.333 37.667 65.666 93 66.999h2z" />
    <glyph glyph-name="uni1B36_uni1B01" unicode="&#x1b36;&#x1b01;" 
d="M-380 529c-63.333 22 -122 59.667 -176 113l25 25c26.667 -26 53 -48.667 79 -68c-10.667 21.333 -16 43 -16 65l1 17c8.66699 62.667 53 94 133 94c40 0 70.833 -10 92.5 -30s32.834 -42.667 33.501 -68v-10c0 -48.667 -24 -93.667 -72 -135l-10 11
c28.667 30.667 43 62.667 43 96v8c-2.66699 41.333 -34 62 -94 62c-56.667 0 -87.334 -21.333 -92.001 -64l-1 -10c0 -34 20.667 -62.667 62 -86zM-401 894c17.333 -9.33301 40.668 -14.667 70.001 -16c27.333 0.666992 50.666 5.66699 69.999 15
c-10.667 40.667 -34 61 -70 61s-59.333 -20 -70 -60zM-323.998 1140l10 -130h-36l9 130h17zM-243.998 902.999c32 23.333 50.332 65.333 54.999 126h14v-8c0 -142.667 -52 -215 -156 -217c-104 2 -156 74.333 -156 217v8h14c4.66699 -61.333 23.334 -103 56.001 -125
c0 75.333 28.667 113 86 113c58 0 87 -38 87 -114z" />
    <glyph glyph-name="uni1B36_uni1B02" unicode="&#x1b36;&#x1b02;" 
d="M-561 529c-76.667 30.667 -147.332 87.002 -211.999 169.002l21 22c40.667 -44.667 71.334 -74.334 92.001 -89.001c-17.333 32 -26 63.667 -26 95l2 23c6.66699 47.333 27 85.666 61 114.999s74 44 120 44c50 0 91.667 -16.667 125 -50s50 -75.333 50 -126v-10
c-2.66699 -42.667 -12.834 -78 -30.501 -106s-43.5 -55.667 -77.5 -83l-13 12c39.333 46 60.666 88 63.999 126l1 24c0 38.667 -11.167 69.167 -33.5 91.5s-53.5 33.5 -93.5 33.5l-26 -2c-61.333 -11.333 -94 -48 -98 -110l-1 -14c0 -57.333 28.333 -104.333 85 -141z
M-124.998 542.002c-31.333 98.667 -82.667 183 -154 253l38 59c39.333 -24 70 -65.833 92 -125.5s36 -120.5 42 -182.5z" />
    <glyph glyph-name="uni1B36_uni1B03" unicode="&#x1b36;&#x1b03;" 
d="M-561 529c-76.667 30.667 -147.332 87.002 -211.999 169.002l21 22c40.667 -44.667 71.334 -74.334 92.001 -89.001c-17.333 32 -26 63.667 -26 95l2 23c6.66699 47.333 27 85.666 61 114.999s74 44 120 44c50 0 91.667 -16.667 125 -50s50 -75.333 50 -126v-10
c-2.66699 -42.667 -12.834 -78 -30.501 -106s-43.5 -55.667 -77.5 -83l-13 12c39.333 46 60.666 88 63.999 126l1 24c0 38.667 -11.167 69.167 -33.5 91.5s-53.5 33.5 -93.5 33.5l-26 -2c-61.333 -11.333 -94 -48 -98 -110l-1 -14c0 -57.333 28.333 -104.333 85 -141z
M4.00195 533.002c-66.667 13.333 -136.166 60.8301 -208.499 142.497s-116.5 180.834 -132.5 297.501l80 -21c25.333 -99.333 64.166 -185.666 116.499 -258.999s102.5 -120.666 150.5 -141.999z" />
    <glyph glyph-name="uni1B36_uni1B02_uni1B03" unicode="&#x1b36;&#x1b02;&#x1b03;" 
d="M-561 529c-76.667 30.667 -147.332 87.002 -211.999 169.002l21 22c40.667 -44.667 71.334 -74.334 92.001 -89.001c-17.333 32 -26 63.667 -26 95l2 23c6.66699 47.333 27 85.666 61 114.999s74 44 120 44c50 0 91.667 -16.667 125 -50s50 -75.333 50 -126v-10
c-2.66699 -42.667 -12.834 -78 -30.501 -106s-43.5 -55.667 -77.5 -83l-13 12c39.333 46 60.666 88 63.999 126l1 24c0 38.667 -11.167 69.167 -33.5 91.5s-53.5 33.5 -93.5 33.5l-26 -2c-61.333 -11.333 -94 -48 -98 -110l-1 -14c0 -57.333 28.333 -104.333 85 -141z
M-124.998 542.002c-31.333 98.667 -82.667 183 -154 253l38 59c39.333 -24 70 -65.833 92 -125.5s36 -120.5 42 -182.5zM-35.999 833.002c-99.333 12.667 -177 38.333 -233 77s-92 93 -108 163l80 -21c25.333 -52.667 56 -94.167 92 -124.5s94.333 -55.833 175 -76.5z" />
    <glyph glyph-name="uni1B37_uni1B00" unicode="&#x1b37;&#x1b00;" 
d="M-531 667c30 -28.667 56.667 -51.332 80 -67.999c-11.333 21.333 -17 43 -17 65l1 17c8.66699 62.667 53.334 94 134.001 94c40.667 0 71.334 -10 92.001 -30c22 -20.667 33.333 -43.334 34 -68.001v-10c0 -48.667 -24 -93.667 -72 -135l-11 11
c29.333 31.333 44 63.333 44 96v8c-3.33301 41.333 -35 62 -95 62c-56.667 0 -87.334 -21.333 -92.001 -64v-10c0 -34 20.667 -62.667 62 -86l-9 -20c-62.667 22 -121.334 59.667 -176.001 113zM-369 672.002c14.667 0 28 -13.999 40 -41.999
c11.333 -28.667 17 -63.334 17 -104.001v-5l-12 -2c-21.333 66.667 -46.666 113 -75.999 139c11.333 9.33301 21.666 14 30.999 14zM-250 803.003c22.667 30.667 34.001 62.667 34.001 96v8c-3.33301 66 -46 100 -128 102c-82 -2 -124.667 -36 -128 -102v-8
c0 -33.333 11.333 -65.333 34 -96l-11 -11c-34.667 40.667 -52 85.667 -52 135v10c3.33301 92 55.666 138 156.999 138c102 0 154.333 -46 157 -138v-10c0 -49.333 -17.333 -94.333 -52 -135zM-341.999 972.003c55.333 -1.33301 86.333 -23.666 93 -66.999l1 -16
c0 -34.667 -17.333 -63.334 -52 -86.001l-6 12c18.667 14.667 28 30.667 28 48c0 33.333 -20 50 -60 50h-10c-40 0 -60 -16.667 -60 -50c0 -17.333 9.33301 -33.333 28 -48l-6 -12c-34.667 22.667 -52 51.334 -52 86.001l1 16c6.66699 43.333 37.667 65.666 93 66.999h2z
" />
    <glyph glyph-name="uni1B37_uni1B01" unicode="&#x1b37;&#x1b01;" 
d="M-380 529c-63.333 22 -121.998 59.667 -175.998 113l25 25c26.667 -26 53.334 -48.667 80.001 -68c-11.333 21.333 -17 43 -17 65l1 17c9.33301 62.667 54 94 134 94c40 0 70.667 -10 92 -30s32.666 -42.667 33.999 -68v-10c0 -48.667 -24 -93.667 -72 -135l-11 11
c29.333 30.667 44 62.667 44 96v8c-2.66699 41.333 -34.334 62 -95.001 62c-56.667 0 -87.334 -21.333 -92.001 -64v-10c0 -34 20.667 -62.667 62 -86zM-399.998 894c17.333 -9.33301 40.666 -14.667 69.999 -16c26.667 0.666992 50 5.66699 70 15
c-11.333 40.667 -34.666 61 -69.999 61c-36 0 -59.333 -20 -70 -60zM-322.998 1140l10 -130h-36l9 130h17zM-242.998 902.999c32 23.333 50 65.333 54 126h14v-8c0 -142.667 -51.667 -215 -155 -217c-104 2 -156 74.333 -156 217v8h14c4 -61.333 22.333 -103 55 -125
c0 75.333 29 113 87 113s87 -38 87 -114zM-323.998 518.999c-20.667 65.333 -46 111.667 -76 139c11.333 9.33301 21.666 14 30.999 14c14.667 0 27.834 -14 39.501 -42s17.5 -62.667 17.5 -104v-5z" />
    <glyph glyph-name="uni1B37_uni1B02" unicode="&#x1b37;&#x1b02;" 
d="M-561 529c-76.667 30.667 -147.332 87.002 -211.999 169.002l21 22c40.667 -44.667 71.334 -74.334 92.001 -89.001c-17.333 32 -26 63.667 -26 95l2 23c6.66699 47.333 27 85.666 61 114.999s74 44 120 44c50 0 91.667 -16.667 125 -50s50 -75.333 50 -126v-10
c-2.66699 -42.667 -12.834 -78 -30.501 -106s-43.5 -55.667 -77.5 -83l-13 12c39.333 46 60.666 88 63.999 126l1 24c0 38.667 -11.167 69.167 -33.5 91.5s-53.5 33.5 -93.5 33.5l-26 -2c-61.333 -11.333 -94 -48 -98 -110l-1 -14c0 -57.333 28.333 -104.333 85 -141z
M-124.998 542.002c-31.333 98.667 -82.667 183 -154 253l38 59c39.333 -24 70 -65.833 92 -125.5s36 -120.5 42 -182.5zM-475.999 551.002c-30 82 -65.333 142 -106 180l42 50c49.333 -33.333 76 -107.333 80 -222zM-560.999 529.002
c-76.667 30.667 -147.332 87.002 -211.999 169.002l21 22c40.667 -44.667 71.334 -74.334 92.001 -89.001c-17.333 32 -26 63.667 -26 95l2 23c6.66699 47.333 27 85.666 61 114.999s74 44 120 44c50 0 91.667 -16.667 125 -50s50 -75.333 50 -126v-10
c-2.66699 -42.667 -12.834 -78 -30.501 -106s-43.5 -55.667 -77.5 -83l-13 12c39.333 46 60.666 88 63.999 126l1 24c0 38.667 -11.167 69.167 -33.5 91.5s-53.5 33.5 -93.5 33.5l-26 -2c-61.333 -11.333 -94 -48 -98 -110l-1 -14c0 -57.333 28.333 -104.333 85 -141z" />
    <glyph glyph-name="uni1B37_uni1B03" unicode="&#x1b37;&#x1b03;" 
d="M-561 529c-76.667 30.667 -147.332 87.002 -211.999 169.002l21 22c40.667 -44.667 71.334 -74.334 92.001 -89.001c-17.333 32 -26 63.667 -26 95l2 23c6.66699 47.333 27 85.666 61 114.999s74 44 120 44c50 0 91.667 -16.667 125 -50s50 -75.333 50 -126v-10
c-2.66699 -42.667 -12.834 -78 -30.501 -106s-43.5 -55.667 -77.5 -83l-13 12c39.333 46 60.666 88 63.999 126l1 24c0 38.667 -11.167 69.167 -33.5 91.5s-53.5 33.5 -93.5 33.5l-26 -2c-61.333 -11.333 -94 -48 -98 -110l-1 -14c0 -57.333 28.333 -104.333 85 -141z
M4.00195 533.002c-66.667 13.333 -136.166 60.8301 -208.499 142.497s-116.5 180.834 -132.5 297.501l80 -21c25.333 -99.333 64.166 -185.666 116.499 -258.999s102.5 -120.666 150.5 -141.999zM-475.997 550.999c-30 82 -65.333 142 -106 180l42 50
c49.333 -33.333 76 -107.333 80 -222zM-560.997 528.999c-76.667 30.667 -147.332 87.002 -211.999 169.002l21 22c40.667 -44.667 71.334 -74.334 92.001 -89.001c-17.333 32 -26 63.667 -26 95l2 23c6.66699 47.333 27 85.666 61 114.999s74 44 120 44
c50 0 91.667 -16.667 125 -50s50 -75.333 50 -126v-10c-2.66699 -42.667 -12.834 -78 -30.501 -106s-43.5 -55.667 -77.5 -83l-13 12c39.333 46 60.666 88 63.999 126l1 24c0 38.667 -11.167 69.167 -33.5 91.5s-53.5 33.5 -93.5 33.5l-26 -2
c-61.333 -11.333 -94 -48 -98 -110l-1 -14c0 -57.333 28.333 -104.333 85 -141z" />
    <glyph glyph-name="uni1B37_uni1B02_uni1B03" unicode="&#x1b37;&#x1b02;&#x1b03;" 
d="M-561 529c-76.667 30.667 -147.332 87.002 -211.999 169.002l21 22c40.667 -44.667 71.334 -74.334 92.001 -89.001c-17.333 32 -26 63.667 -26 95l2 23c6.66699 47.333 27 85.666 61 114.999s74 44 120 44c50 0 91.667 -16.667 125 -50s50 -75.333 50 -126v-10
c-2.66699 -42.667 -12.834 -78 -30.501 -106s-43.5 -55.667 -77.5 -83l-13 12c39.333 46 60.666 88 63.999 126l1 24c0 38.667 -11.167 69.167 -33.5 91.5s-53.5 33.5 -93.5 33.5l-26 -2c-61.333 -11.333 -94 -48 -98 -110l-1 -14c0 -57.333 28.333 -104.333 85 -141z
M-124.998 542.002c-31.333 98.667 -69.667 169 -115 211l-52 -39l-10 9l61 131c39.333 -24 70 -65.833 92 -125.5s36 -120.5 42 -182.5zM-35.999 833.002c-99.333 12.667 -177 38.333 -233 77s-92 93 -108 163l80 -21c25.333 -52.667 56 -94.167 92 -124.5
s94.333 -55.833 175 -76.5zM-475.999 551.001c-27.333 73.333 -56.667 123.333 -88 150l-30 -21l-11 12l40 105c62.667 -36 97.667 -115.333 105 -238z" />
    <glyph glyph-name="uni1B42_uni1B02" unicode="&#x1b42;&#x1b02;" 
d="M-583 512c-121.333 14.667 -181.999 74 -181.999 178v38l25 2c8.66699 -94.667 51.667 -154.334 129 -179.001c-4.66699 30.667 -7 59.334 -7 86.001c0 70 18.667 125.167 56 165.5s87 60.5 149 60.5l26 -1c74 -6.66699 128.667 -39.667 164 -99v-8l-337 -168l-8 20
l236 143c-18.667 24 -54.334 36.667 -107.001 38c-96.667 0 -145 -77.667 -145 -233zM-24.999 542c-31.333 98.667 -82.667 183 -154 253l38 59c39.333 -24 70 -65.833 92 -125.5s36 -120.5 42 -182.5z" />
    <glyph glyph-name="uni1B42_uni1B03" unicode="&#x1b42;&#x1b03;" 
d="M4 533c-66.667 13.333 -136.166 60.8301 -208.499 142.497s-116.5 180.834 -132.5 297.501l80 -21c25.333 -99.333 64.166 -185.666 116.499 -258.999s102.5 -120.666 150.5 -141.999zM-662.999 511.997c-121.333 14.667 -181.999 74 -181.999 178v38l25 2
c8.66699 -94.667 51.667 -154.334 129 -179.001c-4.66699 30.667 -7 59.334 -7 86.001c0 70 18.667 125.167 56 165.5s87 60.5 149 60.5l26 -1c74 -6.66699 128.667 -39.667 164 -99v-8l-337 -168l-8 20l236 143c-18.667 24 -54.334 36.667 -107.001 38
c-96.667 0 -145 -77.667 -145 -233z" />
    <glyph glyph-name="uni1B42_uni1B02_uni1B03" unicode="&#x1b42;&#x1b02;&#x1b03;" 
d="M-583 512c-121.333 14.667 -181.999 74 -181.999 178v38l25 2c8.66699 -94.667 51.667 -154.334 129 -179.001c-4.66699 30.667 -7 59.334 -7 86.001c0 70 18.667 125.167 56 165.5s87 60.5 149 60.5l26 -1c74 -6.66699 128.667 -39.667 164 -99v-8l-337 -168l-8 20
l236 143c-18.667 24 -54.334 36.667 -107.001 38c-96.667 0 -145 -77.667 -145 -233zM-24.999 542c-31.333 98.667 -82.667 183 -154 253l38 59c39.333 -24 70 -65.833 92 -125.5s36 -120.5 42 -182.5zM24 833c-99.333 12.667 -177 38.333 -233 77s-92 93 -108 163l80 -21
c25.333 -52.667 56 -94.167 92 -124.5s94.333 -55.833 175 -76.5z" />
    <glyph glyph-name="uni1B02_uni1B03" unicode="&#x1b02;&#x1b03;" 
d="M-125 542c-31.333 98.667 -82.667 183 -154 253l38 59c39.333 -24 70 -65.833 92 -125.5s36 -120.5 42 -182.5zM-168.001 533c-154.667 0 -273.668 45.998 -357.001 137.998c-71.333 84.667 -114.666 185.334 -129.999 302.001l80 -21
c24.667 -99.333 62 -184.666 112 -255.999c64.667 -88.667 165 -137 301 -145z" />
    <glyph glyph-name="uni1B13.td" unicode="&#x1b13;&#x1b35;" horiz-adv-x="1256" 
d="M441 20c54.667 0 82 16.998 82 50.998c-1.33301 22 -24.833 41 -70.5 57s-94.5 25 -146.5 27v-5c0 -29.333 8.66699 -56.166 26 -80.499s44.333 -40.166 81 -47.499zM127 28.998l10.999 1c28.667 6.66699 45 46.334 49 119.001
c-55.333 -8.66699 -85.666 -35.334 -90.999 -80.001c0 -26.667 10.333 -40 31 -40zM448.999 -9.00195c-53.333 0 -94.6699 13.002 -124.003 39.002c-35.333 30.667 -53.666 73.334 -54.999 128.001c-16.667 0 -34.667 -1 -54 -3c-2 -104.667 -31 -157 -87 -157
c-44.667 0 -69 24 -73 72c0 42.667 13.833 77.167 41.5 103.5s57.834 42.166 90.501 47.499v31c-4 64 -23 96 -57 96c-30.667 0 -46 -20.333 -46 -61c0.666992 -25.333 5.66699 -48 15 -68l-17 -6c-25.333 37.333 -38 81.666 -38 132.999c0 61.333 25.667 92 77 92
c61.333 -1.33301 92 -52.333 92 -153v-57c14.667 2.66699 33.667 4.66699 57 6v10c1.33301 129.333 75.333 194.666 222 195.999c146 -1.33301 220.667 -82 224 -242v-67l-31 27v30c-1.33301 102.667 -65.333 154 -192 154c-123.333 0 -185 -35.333 -185 -106
c80.667 -1.33301 145.167 -15.5 193.5 -42.5s72.5 -60.833 72.5 -101.5c-2 -30.667 -14.167 -55.167 -36.5 -73.5s-52.166 -27.5 -89.499 -27.5zM794.995 171v-13c0 -104.667 -18 -157.334 -54 -158.001c-36 0.666992 -54.333 53.334 -55 158.001v30l31 10v-67
c0 -45.333 7.66699 -69 23 -71c15.333 2 23.333 25.667 24 71v67zM794.995 171l0.000976562 -12.999l-31 -27v67c4 160.667 75.667 242.667 215 246h35c128 -4.66699 192 -80.334 192 -227.001c0 -92 -35.333 -160 -106 -204c-39.333 -18.667 -78 -28 -116 -28
c-58.667 0 -92.334 43.333 -101.001 130l16 10c40.667 -38.667 87.667 -58 141 -58c54.667 0.666992 91.667 16 111 46s29 58.667 29 86c-2 102 -64 153.333 -186 154c-132.667 -3.33301 -199 -64 -199 -182z" />
    <glyph glyph-name="uni1B15.td" unicode="&#x1b15;&#x1b35;" horiz-adv-x="1197" 
d="M526 -11l-3.99902 12.999c43.333 32 67.333 92.667 72 182c0 99.333 -61 152 -183 158h-12c-105.333 -4.66699 -164.333 -53 -177 -145l-2 -31c0 -59.333 28.333 -111.666 85 -156.999l-10 -14c-50.667 10.667 -98.334 26 -143.001 46c-54.667 23.333 -82 64 -82 122
c0 32.667 10 67.667 30 105c16.667 26.667 25 46.667 25 60c0 12 -7.33301 18 -22 18c-23.333 0 -35 -16.333 -35 -49c0 -11.333 1.66699 -25 5 -41l-14 -2c-9.33301 24.667 -14 49.334 -14 74.001c0 74.667 24.667 112 74 112c40.667 -2.66699 61 -23.334 61 -62.001
c0 -24 -12.167 -54.333 -36.5 -91s-36.5 -67.667 -36.5 -93c0 -39.333 32.333 -70.666 97 -93.999c-10 23.333 -16.333 54.666 -19 93.999c2 160 72.333 241.667 211 245h18c140 -4 210 -88.333 210 -253c-4 -56 -13.333 -101 -28 -135zM935.001 352.999
c-116.667 -2 -190.666 -50.665 -221.999 -145.998c-18 -71.333 -41.667 -123.833 -71 -157.5s-68 -53.834 -116 -60.501l-4 13l74 49c33.333 15.333 61 66.333 83 153c20 79.333 49.833 138.666 89.5 177.999s99.167 59.666 178.5 60.999
c133.333 -3.33301 200 -78.666 200 -225.999c0 -92 -35.333 -160 -106 -204c-39.333 -18.667 -78 -28 -116 -28c-58.667 0 -92.334 43.333 -101.001 130l16 10c40.667 -38.667 87.667 -58 141 -58c54.667 0.666992 91.667 16 111 46s29 58.667 29 86
c-2 102 -64 153.333 -186 154z" />
    <glyph glyph-name="uni1B16.td" unicode="&#x1b16;&#x1b35;" horiz-adv-x="1301" 
d="M510 151c-32.667 -2.66699 -55.665 -27.999 -68.998 -75.999c-14.667 -50.667 -44.667 -77 -90 -79h-6c-34 0.666992 -59.833 14 -77.5 40s-26.5 60.333 -26.5 103c0 106 28 189.333 84 250c-70.667 -11.333 -106.334 -59.666 -107.001 -144.999v-57
c-4.66699 -80.667 -13.667 -132.334 -27 -155.001s-32.666 -34 -57.999 -34c-24 0 -43.333 8.83301 -58 26.5s-22 44.167 -22 79.5c0 26 4 53 12 81s20.167 55.5 36.5 82.5s24.5 46.833 24.5 59.5s-7.66699 19 -23 19c-23.333 0 -35 -16.333 -35 -49
c0 -11.333 1.66699 -25 5 -41l-13 -2c-10 25.333 -15 50.666 -15 75.999c0 73.333 24.667 110 74 110c41.333 -2.66699 62 -23.667 62 -63c0 -24 -12.333 -54.333 -37 -91c-39.333 -58.667 -59 -108 -59 -148c0 -32.667 14 -49 42 -49c20 0 35.833 9.66699 47.5 29
s17.5 46 17.5 80v87c0 104 50.333 156.333 151 157h55l3 -12c-80.667 -73.333 -121 -148.333 -121 -225c0 -32.667 7.33301 -59.167 22 -79.5s38 -30.833 70 -31.5c34.667 0.666992 59.167 20.667 73.5 60s37.833 59 70.5 59c66 0 113.333 -43 142 -129
c20 6.66699 37.333 22.167 52 46.5s22 58.833 22 103.5c-0.666992 52.667 -20.334 90.667 -59.001 114c-18.667 6.66699 -36.667 10 -54 10c-14 0 -28 -2.33301 -42 -7c18 60 58.333 90 121 90l-7 -66c47.333 -26 71 -73.667 71 -143v-11
c0 -148.667 -41.333 -223.667 -124 -225h-6c-40.667 99.333 -81.334 151 -122.001 155zM1251 217.001c0 -92 -35.332 -159.999 -105.999 -203.999c-39.333 -18.667 -78 -28 -116 -28c-58.667 0 -92.334 43.333 -101.001 130l16 10c40.667 -38.667 87.667 -58 141 -58
c54.667 0.666992 91.667 16 111 46s29 58.667 29 86c-2 102 -65.667 153.333 -191 154c-63.333 0 -122.333 -33 -177 -99l-16 9l1 19c0 60.667 -50 91.667 -150 93c47.333 -26 71 -73.667 71 -143v-11l-31 13c-0.666992 52.667 -20.334 90.667 -59.001 114
c-18 6.66699 -35.667 10 -53 10c-14 0 -28 -2.33301 -42 -7c17.333 60.667 58 91 122 91c83.333 0 139.333 -39.667 168 -119c36.667 80.667 98.334 121 185.001 121c132 -4.66699 198 -80.334 198 -227.001z" />
    <glyph glyph-name="uni1B18.td" unicode="&#x1b18;&#x1b35;" horiz-adv-x="1045" 
d="M108 28l14.001 2c29.333 6.66699 51.666 39.667 66.999 99c-10.667 2.66699 -20.667 4 -30 4c-20.667 0 -39 -6.5 -55 -19.5s-24 -29.5 -24 -49.5v-8c2 -18.667 11.333 -28 28 -28zM438.001 375c72.667 -40 109 -108.332 109 -204.999l-1 -28
c-8 -91.333 -42.667 -140 -104 -146h-8c-30 0 -62.333 16 -97 48c-37.333 36 -77 62 -119 78c-8 -35.333 -21.833 -65 -41.5 -89s-42.167 -36.333 -67.5 -37c-42.667 0 -64 24 -64 72l2 26c12 76 65 114 159 114c6 39.333 9 69.666 9 90.999c0 44 -18.667 66 -56 66
c-32 0 -49.667 -17.333 -53 -52v-6c0 -18 7.66699 -39.667 23 -65l-8 -10c-35.333 30.667 -53 68.667 -53 114v10c4 59.333 34.333 89 91 89c58.667 0 88 -38.333 88 -115c0 -34 -4.66699 -76.667 -14 -128c42 -8 83.667 -29.333 125 -64c49.333 -41.333 83 -62 101 -62
c30.667 0 49 26.667 55 80l1 20c0 32.667 -6 62 -18 88s-29.667 48.167 -53 66.5s-49.333 27.5 -78 27.5c-14.667 0 -28.667 -2.33301 -42 -7c17.333 60.667 58 91 122 91zM995.001 217.001c0 -92 -35.333 -159.999 -106 -203.999c-39.333 -18.667 -78 -28 -116 -28
c-58.667 0 -92.334 43.333 -101.001 130l16 10c40.667 -38.667 87.667 -58 141 -58c54.667 0.666992 91.667 16 111 46s29 58.667 29 86c-2 102 -65.667 153.333 -191 154c-63.333 0 -122.333 -33 -177 -99l-16 9l1 19c0 60.667 -50 91.667 -150 93l-114 -24
c17.333 60.667 58 91 122 91c83.333 0 139.333 -39.667 168 -119c36.667 80.667 98.334 121 185.001 121c132 -4.66699 198 -80.334 198 -227.001z" />
    <glyph glyph-name="uni1B19.td" unicode="&#x1b19;&#x1b35;" horiz-adv-x="1262" 
d="M599 94c47.333 0 79.835 11.3301 97.502 33.9971s34.667 62.334 51 119.001s41.833 103.5 76.5 140.5s94 55.833 178 56.5c140 -7.33301 210 -83 210 -227c0 -92 -35.333 -160 -106 -204c-39.333 -18.667 -78 -28 -116 -28c-58.667 0 -92.334 43.333 -101.001 130l16 10
c40.667 -38.667 87.667 -58 141 -58c54.667 0.666992 91.667 16 111 46s29 58.667 29 86c-2 102 -65.333 153.333 -190 154c-124.667 -2 -201 -50.333 -229 -145c-25.333 -86 -49.333 -142.333 -72 -169c-22 -25.333 -54 -39.666 -96 -42.999
c-94.667 0.666992 -158.334 58.334 -191.001 173.001c-34 115.333 -92.667 173 -176 173c-52.667 0 -91 -17.667 -115 -53s-36 -78.333 -36 -129c2 -64.667 26.667 -100.334 74 -107.001c53.333 0 80 35.667 80 107c0 18 -1.66699 38.667 -5 62l17 4
c12 -45.333 18 -83.666 18 -114.999c0 -76 -34 -114 -102 -114c-78.667 2.66699 -118 61 -118 175c0 178 63 267 189 267c88.667 -2 148.667 -60.333 180 -175c30 -111.333 91.667 -168 185 -170z" />
    <glyph glyph-name="uni1B1B.td" unicode="&#x1b1b;&#x1b35;" horiz-adv-x="1717" 
d="M920 383c14.667 0 29.333 2.33301 44 7c-28.667 60.667 -62 91 -100 91c-26.667 -1.33301 -40 -13.333 -40 -36c0 -17.333 9 -32 27 -44s41 -18 69 -18zM1140 347l-15.9971 -0.999023c-28 -5.33301 -60.667 -15.333 -98 -30c6 -30 9 -71 9 -123v-630
c0 -244 -101 -366.667 -303 -368c-10.667 39.333 -34.334 86.666 -71.001 141.999s-77.667 83 -123 83c-50 0 -94.167 -37.167 -132.5 -111.5s-96.833 -112.166 -175.5 -113.499c-143.333 1.33301 -215 97 -215 287c0 97.333 19.333 177.666 58 240.999
c52 87.333 173.5 144.5 364.5 171.5s292.5 115.167 304.5 264.5c0 116 -36.333 177 -109 183h-25c-53.333 -6 -96 -30 -128 -72h-2c-32 42 -74.667 66 -128 72h-24c-56.667 -4.66699 -91.334 -36.667 -104.001 -96l-2 -44c0 -83.333 28.333 -147.666 85 -192.999l-10 -14
c-50.667 10.667 -98.334 26 -143.001 46c-54.667 23.333 -82 64 -82 122c0 32.667 10 67.667 30 105c16.667 26.667 25 46.667 25 60c0 12 -7.33301 18 -22 18c-23.333 0 -35 -16.333 -35 -49c0 -11.333 1.66699 -25 5 -41l-14 -2c-9.33301 24.667 -14 49.334 -14 74.001
c0 74.667 24.667 112 74 112c40.667 -2.66699 61 -23.334 61 -62.001c0 -24 -12 -54.333 -36 -91s-36 -67.334 -36 -92.001c0 -40 32 -71.667 96 -95c-10 23.333 -16.333 54.666 -19 93.999c2 160 48 241.667 138 245c68 0 120 -38.667 156 -116
c17.333 37.333 37.5 66 60.5 86s55.167 30 96.5 30c90.667 -4 136 -94.333 136 -271v-17c0 -204 -92.667 -318 -278 -342c-165.333 -22 -279.666 -57.167 -342.999 -105.5s-95 -121.5 -95 -219.5c0 -127.333 58 -191 174 -191c92 0 152.833 35.333 182.5 106
s78.167 107 145.5 109c64.667 -0.666992 117.834 -25 159.501 -73s69.834 -95.333 84.501 -142c133.333 0 200.666 101 201.999 303v594c0 50 -3.33301 85.667 -10 107l-36 -4c-54.667 1.33301 -96.667 14.5 -126 39.5s-45 53.833 -47 86.5v12c0 54 26.333 81 79 81
c51.333 0 94.666 -37.333 129.999 -112c40.667 16 74.334 24.333 101.001 25c43.333 0 83 -33 119 -99c56.667 74.667 136.667 112.667 240 114h21c128 -18 192 -92.333 192 -223c0 -92 -35.333 -160 -106 -204c-39.333 -18.667 -78 -28 -116 -28
c-58.667 0 -92.334 43.333 -101.001 130l16 10c40.667 -38.667 87.667 -58 141 -58c54.667 0.666992 91.667 16 111 46s29 58.667 29 86c-2 94.667 -64 142.334 -186 143.001c-120.667 0 -203.334 -19 -248.001 -57c-26.667 41.333 -49 62 -67 62z" />
    <glyph glyph-name="uni1B1D.td" unicode="&#x1b1d;&#x1b35;" horiz-adv-x="957" 
d="M227 93c80 0 120.001 16.668 120.001 50.001c0 1.33301 -0.5 7.66602 -1.5 18.999s-13.167 19 -36.5 23c-54.667 0 -88.334 -30.333 -101.001 -91zM320.001 -247.999c-97.333 1.33301 -147.332 82.665 -149.999 243.998c-60.667 12 -97 55.667 -109 131l-1 20
c0 36 10.833 71.833 32.5 107.5s32.5 59.834 32.5 72.501s-7.33301 19 -22 19c-23.333 0 -35 -16.667 -35 -50c0 -11.333 1.33301 -24.666 4 -39.999l-13 -2c-9.33301 24.667 -14 49.334 -14 74.001c0 74.667 24.667 112 74 112c40.667 -2.66699 61 -23.334 61 -62.001
c0 -24 -12.333 -54.667 -37 -92c-27.333 -41.333 -41 -77 -41 -107l1 -15c5.33301 -34 30.333 -57.333 75 -70c12.667 81.333 53.667 122.666 123 123.999c56 -1.33301 84 -26.666 84 -75.999c0 -42.667 -16 -77.5 -48 -104.5s-75.667 -40.5 -131 -40.5
c0 -40 11.167 -74.5 33.5 -103.5s49.166 -43.5 80.499 -43.5c62 0 107.333 31.667 136 95l14 -5c-19.333 -124 -69.333 -186.667 -150 -188zM504.002 270c-30.667 48 -71.333 71.999 -122 71.999h-10c-73.333 -5.33301 -116.666 -33.333 -129.999 -84l-17 3
c2.66699 114.667 51.334 174.334 146.001 179.001c65.333 -2 109.666 -41 132.999 -117c36.667 80.667 101 121 193 121c140 -7.33301 210 -83 210 -227c0 -92 -35.333 -160 -106 -204c-39.333 -18.667 -78 -28 -116 -28c-58.667 0 -92.334 43.333 -101.001 130l16 10
c40.667 -38.667 87.667 -58 141 -58c54.667 0.666992 91.667 16 111 46s29 58.667 29 86c-2 102 -65.333 153.333 -190 154c-82.667 0 -145 -27.667 -187 -83z" />
    <glyph glyph-name="uni1B1E.td" unicode="&#x1b1e;&#x1b35;" horiz-adv-x="957" 
d="M217 -4c-90 1.33301 -142.001 44.999 -156.001 130.999l-1 20c0 36 13.333 76.333 40 121c16.667 26.667 25 46.667 25 60c0 12 -7.33301 18 -22 18c-23.333 0 -35 -16.667 -35 -50c0 -11.333 1.33301 -24.666 4 -39.999l-13 -2c-9.33301 24.667 -14 49.334 -14 74.001
c0 74.667 24.667 112 74 112c40.667 -2.66699 61 -23.334 61 -62.001c0 -24 -12.333 -54.667 -37 -92c-27.333 -41.333 -41 -75 -41 -101l1 -12c10 -52.667 52.667 -79 128 -79c70.667 0 115.334 34.333 134.001 103l16 -4c-4 -130 -58.667 -195.667 -164 -197z
M503.999 269.999c-30.667 48 -71.333 71.999 -122 71.999h-10c-73.333 -5.33301 -116.666 -33.333 -129.999 -84l-17 3c2.66699 114.667 51.334 174.334 146.001 179.001c65.333 -2 109.666 -41 132.999 -117c36.667 80.667 101 121 193 121c140 -7.33301 210 -83 210 -227
c0 -92 -35.333 -160 -106 -204c-39.333 -18.667 -78 -28 -116 -28c-58.667 0 -92.334 43.333 -101.001 130l16 10c40.667 -38.667 87.667 -58 141 -58c54.667 0.666992 91.667 16 111 46s29 58.667 29 86c-2 102 -65.333 153.333 -190 154c-82.667 0 -145 -27.667 -187 -83z
" />
    <glyph glyph-name="uni1B1F.td" unicode="&#x1b1f;&#x1b35;" horiz-adv-x="1116" 
d="M444 -4l-6.99902 -0.00195312c-41.333 103.333 -83.333 155 -126 155c-29.333 0 -51.166 -25.333 -65.499 -76s-44.166 -77 -89.499 -79h-6c-67.333 1.33301 -101 40 -101 116v13c1.33301 42.667 18.333 90.334 51 143.001c16.667 26.667 25 46.667 25 60
c0 12 -7.33301 18 -22 18c-23.333 0 -35 -16.667 -35 -50c0 -11.333 1.33301 -24.666 4 -39.999l-13 -2c-9.33301 24.667 -14 49.334 -14 74.001c0 74.667 24.667 112 74 112c40.667 -2.66699 61 -23.334 61 -62.001c0 -24 -12.333 -54.667 -37 -92
c-31.333 -47.333 -47 -85.333 -47 -114c0 -50 27 -76 81 -78c34.667 0.666992 59.167 20.667 73.5 60s37.833 59 70.5 59c64 0 110.333 -39.667 139 -119c43.333 1.33301 73.666 12.666 90.999 33.999c17.333 22.667 34.166 62.334 50.499 119.001s41.833 103.5 76.5 140.5
s94 55.833 178 56.5c140 -7.33301 210 -83 210 -227c0 -92 -35.333 -160 -106 -204c-39.333 -18.667 -78 -28 -116 -28c-58.667 0 -92.334 43.333 -101.001 130l16 10c40.667 -38.667 87.667 -58 141 -58c54.667 0.666992 91.667 16 111 46s29 58.667 29 86
c-2 102 -65.333 153.333 -190 154c-124.667 -2 -201 -50.333 -229 -145c-25.333 -86 -49.5 -142.333 -72.5 -169s-57.833 -41 -104.5 -43z" />
    <glyph glyph-name="uni1B21.td" unicode="&#x1b21;&#x1b35;" horiz-adv-x="1202" 
d="M741 242l0.000976562 -84.001c-0.666992 -104.667 -18.667 -157.334 -54 -158.001c-36.667 0.666992 -55 53.334 -55 158.001v88c-4.66699 64 -38 96 -100 96c-60 0 -104 -47.333 -132 -142c-28 94 -76.333 141 -145 141c-66 0 -99 -47 -99 -141
c-70 6.66699 -109 38.667 -117 96l-2 16c0 50.667 16 97.667 48 141l13 -6c-14.667 -25.333 -22 -52.666 -22 -81.999v-10c4 -37.333 26.667 -60 68 -68c13.333 102 51.333 153 114 153c69.333 0 116.666 -55 141.999 -165c24.667 110 73 165 145 165
c78.667 0 118 -63 118 -189v-120c0 -45.333 7.66699 -69 23 -71c15.333 2 23.333 25.667 24 71v31zM741.001 170.999l0.000976562 -12.999l-31 -27v67c4 160.667 75.667 242.667 215 246h35c128 -4.66699 192 -80.334 192 -227.001c0 -92 -35.333 -160 -106 -204
c-39.333 -18.667 -78 -28 -116 -28c-58.667 0 -92.334 43.333 -101.001 130l16 10c40.667 -38.667 87.667 -58 141 -58c54.667 0.666992 91.667 16 111 46s29 58.667 29 86c-2 102 -64 153.333 -186 154c-132.667 -3.33301 -199 -64 -199 -182z" />
    <glyph glyph-name="uni1B22.td" unicode="&#x1b22;&#x1b35;" horiz-adv-x="1083" 
d="M260 -4l-6.00195 0.00195312c-115.333 1.33301 -179.333 45 -192 131l-2 21c0 36 13.667 76 41 120c16.667 26.667 25 46.334 25 59.001s-7.66699 19 -23 19c-23.333 0 -35 -16.333 -35 -49c0 -11.333 1.66699 -25 5 -41l-13 -2c-10 25.333 -15 50.666 -15 75.999
c0 73.333 24.667 110 74 110c41.333 -2.66699 62 -23.334 62 -62.001c0 -24 -12.333 -54.667 -37 -92c-32 -48 -48.667 -87 -50 -117c0 -28.667 12.833 -48.334 38.5 -59.001s71.834 -16 138.501 -16c108 1.33301 162.667 19.333 164 54c0 34 -36.667 51 -110 51
c-40 0 -82 -7 -126 -21c-6.66699 27.333 -10 53.333 -10 78l1 23c2 30.667 12.333 61 31 91c28 45.333 67.667 68.666 119 69.999h20c122.667 -1.33301 184 -87.333 184 -258v-51c0.666992 -45.333 8.66699 -69 24 -71c14.667 2 22.334 25.667 23.001 71l31 27
c0 -104.667 -17.667 -157.334 -53 -158.001h-2c-35.333 0.666992 -53.333 53.334 -54 158.001v30c-2 54 -17.667 95.5 -47 124.5s-70.666 43.5 -123.999 43.5c-80.667 0 -124.334 -38.667 -131.001 -116c42 24.667 81.333 37 118 37c38 0 70.333 -11 97 -33
s40 -55.333 40 -100c-4 -97.333 -72.667 -146.666 -206 -147.999zM621.998 171.002l0.000976562 -12.999l-31 -27v67c4 160.667 75.667 242.667 215 246h35c128 -4.66699 192 -80.334 192 -227.001c0 -92 -35.333 -160 -106 -204c-39.333 -18.667 -78 -28 -116 -28
c-58.667 0 -92.334 43.333 -101.001 130l16 10c40.667 -38.667 87.667 -58 141 -58c54.667 0.666992 91.667 16 111 46s29 58.667 29 86c-2 102 -64 153.333 -186 154c-132.667 -3.33301 -199 -64 -199 -182z" />
    <glyph glyph-name="uni1B23.td" unicode="&#x1b23;&#x1b35;" horiz-adv-x="965" 
d="M446 6c-35.333 64.667 -68.5 113.833 -99.5 147.5s-60.833 56.5 -89.5 68.5l-35 -54l-13 5l13 144c44.667 -9.33301 91.5 -44.5 140.5 -105.5s82.167 -127.167 99.5 -198.5zM915 216.999c0 -92 -35.332 -160 -105.999 -204c-39.333 -18.667 -78 -28 -116 -28
c-58.667 0 -92.334 43.333 -101.001 130l16 10c40.667 -38.667 87.667 -58 141 -58c54.667 0.666992 91.667 16 111 46s29 58.667 29 86c-2 102 -65.667 153.333 -191 154c-63.333 0 -122.333 -33 -177 -99l-16 9l1 19c0 60.667 -50 91.667 -150 93
c47.333 -26 71 -73.667 71 -143v-11c0 -148.667 -65 -223.667 -195 -225c-100.667 1.33301 -157.334 45 -170.001 131l-2 21c0 36 13.667 76 41 120c16.667 26.667 25 46.334 25 59.001s-7.66699 19 -23 19c-22.667 0 -34 -16.667 -34 -50
c0 -11.333 1.33301 -24.666 4 -39.999l-13 -2c-10 25.333 -15 50.666 -15 75.999c0 73.333 25 110 75 110c16.667 -1.33301 31 -7.5 43 -18.5s18 -25.5 18 -43.5c0 -24 -12.333 -54.667 -37 -92c-27.333 -41.333 -41 -75 -41 -101l1 -12
c5.33301 -27.333 17.833 -47.333 37.5 -60s49.834 -19 90.501 -19c51.333 0 91.5 12.167 120.5 36.5s43.5 58.833 43.5 103.5c-0.666992 52.667 -20.334 90.667 -59.001 114c-18 6.66699 -35.667 10 -53 10c-14 0 -28 -2.33301 -42 -7c17.333 60.667 58 91 122 91
c83.333 0 139.333 -39.667 168 -119c36.667 80.667 98.334 121 185.001 121c132 -4.66699 198 -80.334 198 -227.001z" />
    <glyph glyph-name="uni1B24.td" unicode="&#x1b24;&#x1b35;" horiz-adv-x="1119" 
d="M484 343l1.00098 98.001c95.333 -2.66699 156 -42 182 -118c38 80.667 99.667 121 185 121h25c128 -4.66699 192 -80.334 192 -227.001c0 -92 -35.333 -160 -106 -204c-39.333 -18.667 -78 -28 -116 -28c-58.667 0 -92.334 43.333 -101.001 130l16 10
c40.667 -38.667 87.667 -58 141 -58c54.667 0.666992 91.667 16 111 46s29 58.667 29 86c-2 102 -64 153.333 -186 154h-4c-81.333 0 -143 -27.667 -185 -83h-2c-32 48.667 -92.667 73 -182 73zM382.001 31.001c29.333 0 43.999 12.333 43.999 37v7
c-3.33301 32 -20.666 49.667 -51.999 53l-19 1c-22 0 -39 -4.66699 -51 -14c8 -53.333 31.333 -81.333 70 -84h8zM389 -2.99902c-59.333 1.33301 -98.001 32.332 -116.001 92.999l-84 -66c-19.333 -16 -41.333 -24.333 -66 -25c-52 0 -78 28.333 -78 85l2 23
c4.66699 37.333 28 80.5 70 129.5s63 81.833 63 98.5c0 12.667 -11 19 -33 19c-32 0 -57.333 -23.333 -76 -70l-10 4c4 46.667 15 83.834 33 111.501s39.333 41.5 64 41.5c47.333 0 71 -22 71 -66v-7c-2 -36.667 -26.333 -81.667 -73 -135s-70 -95 -70 -125
c0 -19.333 8 -29 24 -29l10 1c16.667 2.66699 64.334 31 143.001 85v80c8 128.667 82 194 222 196l1 -98c-122.667 0 -184 -42 -184 -126v-30c17.333 7.33301 37.333 11 60 11l21 -1c64 -6.66699 96 -40 96 -100c0 -66.667 -30 -100 -90 -100z" />
    <glyph glyph-name="uni1B25.td" unicode="&#x1b25;&#x1b35;" horiz-adv-x="1106" 
d="M444 -4h-6c-42 103.333 -84 155 -126 155c-29.333 0 -51.166 -25.333 -65.499 -76s-44.166 -77 -89.499 -79h-6c-67.333 1.33301 -101 40 -101 116v13c1.33301 42.667 18.333 90.334 51 143.001c16.667 26.667 25 46.334 25 59.001s-7.66699 19 -23 19
c-23.333 0 -35 -16.333 -35 -49c0 -11.333 1.66699 -25 5 -41l-13 -2c-10 25.333 -15 50.666 -15 75.999c0 73.333 24.667 110 74 110c41.333 -2.66699 62 -23.334 62 -62.001c0 -24 -12.333 -54.667 -37 -92c-31.333 -47.333 -47 -85.333 -47 -114
c0 -50.667 27 -76.667 81 -78c34 0.666992 58.167 20.667 72.5 60s38.166 59 71.499 59c66 0 113.333 -43 142 -129c20 6.66699 37.333 22.167 52 46.5s22 58.833 22 103.5c-0.666992 52.667 -20.334 90.667 -59.001 114c-18.667 6.66699 -36.667 10 -54 10
c-14 0 -28 -2.33301 -42 -7c18 60 58.333 90 121 90l-7 -66c47.333 -26 71 -73.667 71 -143v-11c0 -148.667 -41.333 -223.667 -124 -225zM1056 217c0 -92 -35.332 -159.999 -105.999 -203.999c-39.333 -18.667 -78 -28 -116 -28c-58.667 0 -92.334 43.333 -101.001 130
l16 10c40.667 -38.667 87.667 -58 141 -58c54.667 0.666992 91.667 16 111 46s29 58.667 29 86c-2 102 -65.667 153.333 -191 154c-63.333 0 -122.333 -33 -177 -99l-16 9l1 19c0 60.667 -50 91.667 -150 93c47.333 -26 71 -73.667 71 -143v-11l-31 13
c-0.666992 52.667 -20.334 90.667 -59.001 114c-18 6.66699 -35.667 10 -53 10c-14 0 -28 -2.33301 -42 -7c17.333 60.667 58 91 122 91c83.333 0 139.333 -39.667 168 -119c36.667 80.667 98.334 121 185.001 121c132 -4.66699 198 -80.334 198 -227.001z" />
    <glyph glyph-name="uni1B26.td" unicode="&#x1b26;&#x1b35;" horiz-adv-x="1115" 
d="M441 20c54.667 0 82 16.998 82 50.998c-1.33301 22 -24.833 41 -70.5 57s-94.5 25 -146.5 27v-5c0 -29.333 8.66699 -56.166 26 -80.499s44.333 -40.166 81 -47.499zM127 28.998l10.999 1c28.667 6.66699 45 46.334 49 119.001
c-55.333 -8.66699 -85.666 -35.334 -90.999 -80.001c0 -26.667 10.333 -40 31 -40zM448.999 -9.00195c-53.333 0 -94.6699 13.002 -124.003 39.002c-35.333 30.667 -53.666 73.334 -54.999 128.001c-16.667 0 -34.667 -1 -54 -3c-2 -104.667 -31 -157 -87 -157
c-44.667 0 -69 24 -73 72c0 42.667 13.833 77.167 41.5 103.5s57.834 42.166 90.501 47.499v31c-4 64 -23 96 -57 96c-30.667 0 -46 -20.333 -46 -61c0.666992 -25.333 5.66699 -48 15 -68l-17 -6c-25.333 37.333 -38 81.666 -38 132.999c0 61.333 25.667 92 77 92
c61.333 -1.33301 92 -52.333 92 -153v-57c14.667 2.66699 33.667 4.66699 57 6v10c1.33301 129.333 75.333 194.666 222 195.999l1 -98c-123.333 0 -185 -35.333 -185 -106c80.667 -1.33301 145.167 -15.5 193.5 -42.5s72.5 -60.833 72.5 -101.5
c-2 -30.667 -14.167 -55.167 -36.5 -73.5s-52.166 -27.5 -89.499 -27.5zM884.995 444c128 -4.66699 192.001 -80.333 192.001 -227c0 -92 -35.333 -160 -106 -204c-39.333 -18.667 -78 -28 -116 -28c-58.667 0 -92.334 43.333 -101.001 130l16 10
c40.667 -38.667 87.667 -58 141 -58c54.667 0.666992 91.667 16 111 46s29 58.667 29 86c-2 102 -64 153.333 -186 154h-4c-81.333 0 -143 -27.667 -185 -83h-2c-32 42 -89.333 66 -172 72h-10l1 98c95.333 -4 156 -43 182 -117c38 80.667 99.667 121 185 121h25z" />
    <glyph glyph-name="uni1B27.td" unicode="&#x1b27;&#x1b35;" horiz-adv-x="912" 
d="M651 353c-120 -2 -194.001 -50.333 -222.001 -145c-21.333 -74 -47.166 -127.167 -77.499 -159.5s-68.166 -49.833 -113.499 -52.5h-9c-98 1.33301 -154 45 -168 131l-1 20c0 36 13.667 76.333 41 121c16.667 26.667 25 46.334 25 59.001s-7.66699 19 -23 19
c-23.333 0 -35 -16.333 -35 -49c0 -11.333 1.66699 -25 5 -41l-13 -2c-10 25.333 -15 50.666 -15 75.999c0 73.333 24.667 110 74 110c20.667 -1.33301 36.167 -8.5 46.5 -21.5s15.5 -26.833 15.5 -41.5c0 -24 -12.333 -54.333 -37 -91c-27.333 -41.333 -41 -75 -41 -101
l1 -12c8.66699 -52.667 52 -79 130 -79c49.333 0 86.833 11.333 112.5 34s46.667 62.334 63 119.001s42 103.5 77 140.5s89.5 55.833 163.5 56.5c144.667 -4.66699 217 -80.334 217 -227.001c0 -92 -35.333 -160 -106 -204c-39.333 -18.667 -78 -28 -116 -28
c-58.667 0 -92.334 43.333 -101.001 130l16 10c40.667 -38.667 87.667 -58 141 -58c54.667 0.666992 91.667 16 111 46s29 58.667 29 86c-2 102 -64 153.333 -186 154h-4z" />
    <glyph glyph-name="uni1B2A.td" unicode="&#x1b2a;&#x1b35;" horiz-adv-x="1112" 
d="M218 269c-30.667 44.667 -67.333 67.998 -110 69.998c-18.667 -2 -34.667 -20.333 -48 -55l-14 1v7c0 28.667 3.5 59.834 10.5 93.501s19.167 50.5 36.5 50.5c16 0 37.5 -13.667 64.5 -41s52.167 -66.666 75.5 -117.999zM279.001 89.998l-84.001 -66
c-19.333 -16 -41.666 -24.333 -66.999 -25c-51.333 0 -79 26 -83 78v7c0 52 41 105.667 123 161l11 -11c-58 -60 -87 -103.333 -87 -130c0 -16.667 8 -25 24 -25l10 1c6.66699 1.33301 17.667 6 33 14l110 71zM388 30.998c29.333 0 43.999 12.333 43.999 37v7
c-3.33301 32 -20.666 49.667 -51.999 53l-19 1c-22 0 -39 -4.66699 -51 -14c8 -53.333 31.333 -81.333 70 -84h8zM394.999 -3.00195c-59.333 1.33301 -98 32.333 -116 93l-10 75v80c8 128.667 82 194 222 196l1 -98c-122.667 0 -184 -42 -184 -126v-30
c17.333 7.33301 37.333 11 60 11l21 -1c64 -6.66699 96 -40 96 -100c0 -66.667 -30 -100 -90 -100zM489.999 342.998l1.00098 98.001c95.333 -4.66699 156 -44 182 -118c38 80.667 99.667 121 185 121h25c128 -4.66699 192 -80.334 192 -227.001
c0 -92 -35.333 -160 -106 -204c-39.333 -18.667 -78 -28 -116 -28c-58.667 0 -92.334 43.333 -101.001 130l16 10c40.667 -38.667 87.667 -58 141 -58c54.667 0.666992 91.667 16 111 46s29 58.667 29 86c-2 102 -64 153.333 -186 154h-4c-81.333 0 -143 -27.667 -185 -83
h-2c-32 48.667 -92.667 73 -182 73z" />
    <glyph glyph-name="uni1B2B.td" unicode="&#x1b2b;&#x1b35;" horiz-adv-x="1037" 
d="M792 443c130 -5.33301 195.002 -80.667 195.002 -226c0 -92 -35.333 -160 -106 -204c-39.333 -18.667 -78 -28 -116 -28c-58.667 0 -92.334 43.333 -101.001 130l16 10c40.667 -38.667 87.667 -58 141 -58c54.667 0.666992 91.667 16 111 46s29 58.667 29 86
c-2 100.667 -62.667 152 -182 154c-120 -2 -194.667 -52 -224 -150c-21.333 -70.667 -50.333 -122.167 -87 -154.5s-82.667 -49.833 -138 -52.5c-118 2.66699 -177.667 46 -179 130c0 40.667 20.667 71 62 91l9 3l-9 3c-41.333 19.333 -62 51 -62 95
c0.666992 44 23 74.333 67 91c-36 -2.66699 -67.167 -18.5 -93.5 -47.5s-39.5 -70.167 -39.5 -123.5c0 -30.667 4 -63 12 -97l-14 -11c-21.333 26 -34 67.667 -38 125c4 123.333 94.333 185 271 185h70v-98h-35c-100 0 -150 -19.333 -150 -58c0 -29.333 41 -45.333 123 -48
h60v-33h-60c-82 -2.66699 -123 -18.667 -123 -48c0 -38 43.333 -58.333 130 -61c60.667 0 106.167 11.333 136.5 34s53.666 62.334 69.999 119.001s42 103.167 77 139.5s86.833 55.166 155.5 56.499h22z" />
    <glyph glyph-name="uni1B2C.td" unicode="&#x1b2c;&#x1b35;" horiz-adv-x="1227" 
d="M712.5 247c16.333 56.667 41.8301 103.497 76.4971 140.497s94 55.833 178 56.5c140 -7.33301 210 -83 210 -227c0 -92 -35.333 -160 -106 -204c-39.333 -18.667 -78 -28 -116 -28c-58.667 0 -92.334 43.333 -101.001 130l16 10c40.667 -38.667 87.667 -58 141 -58
c54.667 0.666992 91.667 16 111 46s29 58.667 29 86c-2 102 -65.333 153.333 -190 154c-124.667 -2 -201 -50.333 -229 -145c-25.333 -86 -49.333 -142.333 -72 -169c-22.667 -26 -56.334 -40.333 -101.001 -43c-52.667 0.666992 -93.5 23 -122.5 67
s-48.167 95.333 -57.5 154c-21.333 -146 -81 -219.667 -179 -221h-6c-86 2 -132 44 -138 126v13c0 40.667 14.667 85 44 133c16.667 26.667 25 46.334 25 59.001s-7.66699 19 -23 19c-22.667 0 -34 -16.667 -34 -50c0 -11.333 1.33301 -24.666 4 -39.999l-13 -2
c-9.33301 24.667 -14 49.334 -14 74.001c0 74.667 24.667 112 74 112c40.667 -2.66699 61 -23.334 61 -62.001c0 -24 -12.333 -54.667 -37 -92c-27.333 -41.333 -41 -75 -41 -101l1 -12c5.33301 -27.333 17.833 -47.333 37.5 -60s40.834 -19 63.501 -19h5
c52.667 0 91.334 25.333 116.001 76s38.334 140.334 41.001 269.001h26c2.66699 -128.667 16.334 -218.334 41.001 -269.001s66.667 -76 126 -76c50.667 0 84.834 11.333 102.501 34s34.667 62.334 51 119.001z" />
    <glyph glyph-name="uni1B2D.td" unicode="&#x1b2d;&#x1b35;" horiz-adv-x="1027" 
d="M422 343c-86.667 -2 -132.332 -44.998 -136.999 -128.998v-7c0 -140 -50.333 -210 -151 -210l-16 1c44.667 50.667 67 113.667 67 189c0 73.333 -22.667 126.666 -68 159.999c-20.667 -7.33301 -39.667 -22.666 -57 -45.999l-15 3c10.667 60 37.667 108 81 144
c34 -34 57.5 -69.5 70.5 -106.5s19.5 -83.5 19.5 -139.5l-1 -33c-4 -34.667 -12 -68.334 -24 -101.001c38 8 59.333 47 64 117v60c8 128.667 62.667 194 164 196c78.667 0 130.667 -39.333 156 -118c38 80.667 99.667 121 185 121h25c128 -4.66699 192 -80.334 192 -227.001
c0 -92 -35.333 -160 -106 -204c-39.333 -18.667 -78 -28 -116 -28c-58.667 0 -92.334 43.333 -101.001 130l16 10c40.667 -38.667 87.667 -58 141 -58c54.667 0.666992 91.667 16 111 46s29 58.667 29 86c-2 102 -64 153.333 -186 154h-4c-81.333 0 -143 -27.667 -185 -83
h-2c-32 48.667 -82.667 73 -152 73z" />
    <glyph glyph-name="uni1B2E.td" unicode="&#x1b2e;&#x1b35;" horiz-adv-x="1237" 
d="M977 444c140 -7.33301 210.003 -83 210.003 -227c0 -92 -35.333 -160 -106 -204c-39.333 -18.667 -78 -28 -116 -28c-58.667 0 -92.334 43.333 -101.001 130l16 10c40.667 -38.667 87.667 -58 141 -58c54.667 0.666992 91.667 16 111 46s29 58.667 29 86
c-2 102 -65.333 153.333 -190 154c-124.667 -2 -201 -50.333 -229 -145c-25.333 -86 -49.5 -142.333 -72.5 -169s-54.833 -41 -95.5 -43c-104.667 1.33301 -157 63.333 -157 186v21c0 92.667 -36.667 139 -110 139c-54.667 0 -84.334 -51.333 -89.001 -154
c-4.66699 -86 -14.667 -139.333 -30 -160s-34.333 -31 -57 -31s-41.334 9.16699 -56.001 27.5s-22 44.833 -22 79.5c0 26 4 53 12 81s20.167 55.5 36.5 82.5s24.5 46.833 24.5 59.5s-7.66699 19 -23 19c-23.333 0 -35 -16.333 -35 -49c0 -11.333 1.66699 -25 5 -41l-13 -2
c-10 25.333 -15 50.666 -15 75.999c0 73.333 24.667 110 74 110c17.333 -1.33301 32 -7.5 44 -18.5s18 -25.5 18 -43.5c0 -24 -12.333 -54.667 -37 -92c-39.333 -58.667 -59 -108 -59 -148c0 -32.667 13.667 -49 41 -49c20 0 36 9.5 48 28.5s18 45.833 18 80.5v19
c0 148.667 38.667 223 116 223c89.333 0 134 -75.333 134 -226v-23c0 -64.667 44 -97 132 -97c47.333 0 79.833 11.333 97.5 34s34.667 62.334 51 119.001s41.833 103.5 76.5 140.5s94 55.833 178 56.5z" />
    <glyph glyph-name="uni1B2F.td" unicode="&#x1b2f;&#x1b35;" horiz-adv-x="965" 
d="M915 217c0 -92 -35.332 -160 -105.999 -204c-39.333 -18.667 -78 -28 -116 -28c-58.667 0 -92.334 43.333 -101.001 130l16 10c40.667 -38.667 87.667 -58 141 -58c54.667 0.666992 91.667 16 111 46s29 58.667 29 86c-2 102 -65.667 153.333 -191 154
c-63.333 0 -122.333 -33 -177 -99l-16 9l1 19c0 60.667 -50 91.667 -150 93c47.333 -26 71 -73.667 71 -143v-11c0 -148.667 -65 -223.667 -195 -225c-100.667 1.33301 -157.334 45 -170.001 131l-2 21c0 36 13.667 76 41 120c16.667 26.667 25 46.334 25 59.001
s-7.66699 19 -23 19c-22.667 0 -34 -16.667 -34 -50c0 -11.333 1.33301 -24.666 4 -39.999l-13 -2c-10 25.333 -15 50.666 -15 75.999c0 73.333 25 110 75 110c16.667 -1.33301 31 -7.5 43 -18.5s18 -25.5 18 -43.5c0 -24 -12.333 -54.667 -37 -92
c-27.333 -41.333 -41 -75 -41 -101l1 -12c5.33301 -27.333 17.833 -47.333 37.5 -60s49.834 -19 90.501 -19c51.333 0 91.5 12.167 120.5 36.5s43.5 58.833 43.5 103.5c-0.666992 52.667 -20.334 90.667 -59.001 114c-18 6.66699 -35.667 10 -53 10
c-14 0 -28 -2.33301 -42 -7c17.333 60.667 58 91 122 91c83.333 0 139.333 -39.667 168 -119c36.667 80.667 98.334 121 185.001 121c132 -4.66699 198 -80.334 198 -227.001z" />
    <glyph glyph-name="uni1B30.td" unicode="&#x1b30;&#x1b35;" horiz-adv-x="1197" 
d="M526 -11l-3.99902 12.999c43.333 32 67.333 92.667 72 182c0 99.333 -61 152 -183 158h-12c-105.333 -4.66699 -164.333 -53 -177 -145l-2 -31c0 -59.333 28.333 -111.666 85 -156.999l-10 -14c-50.667 10.667 -98.334 26 -143.001 46c-54.667 23.333 -82 64 -82 122
c0 32.667 10 67.667 30 105c16.667 26.667 25 46.667 25 60c0 12 -7.33301 18 -22 18c-23.333 0 -35 -16.333 -35 -49c0 -11.333 1.66699 -25 5 -41l-14 -2c-9.33301 24.667 -14 49.334 -14 74.001c0 74.667 24.667 112 74 112c40.667 -2.66699 61 -23.334 61 -62.001
c0 -24 -12.167 -54.333 -36.5 -91s-36.5 -67.667 -36.5 -93c0 -39.333 32.333 -70.666 97 -93.999c-10 23.333 -16.333 54.666 -19 93.999c2 160 72.333 241.667 211 245h18c140 -4 210 -88.333 210 -253c-4 -56 -13.333 -101 -28 -135zM935.001 352.999
c-116.667 -2 -190.666 -50.665 -221.999 -145.998c-18 -71.333 -41.667 -123.833 -71 -157.5s-68 -53.834 -116 -60.501l-4 13l74 49c33.333 15.333 61 66.333 83 153c20 79.333 49.833 138.666 89.5 177.999s99.167 59.666 178.5 60.999
c133.333 -3.33301 200 -78.666 200 -225.999c0 -92 -35.333 -160 -106 -204c-39.333 -18.667 -78 -28 -116 -28c-58.667 0 -92.334 43.333 -101.001 130l16 10c40.667 -38.667 87.667 -58 141 -58c54.667 0.666992 91.667 16 111 46s29 58.667 29 86
c-2 102 -64 153.333 -186 154zM480.002 -4.99902c-31.333 98.667 -86 186.667 -164 264l48 49c44.667 -36 76.667 -81 96 -135s32 -111.667 38 -173z" />
    <glyph glyph-name="uni1B31.td" unicode="&#x1b31;&#x1b35;" horiz-adv-x="912" 
d="M651 353c-120 -2 -194.001 -50.333 -222.001 -145c-21.333 -74 -47.166 -127.167 -77.499 -159.5s-68.166 -49.833 -113.499 -52.5h-9c-98 1.33301 -154 45 -168 131l-1 20c0 36 13.667 76.333 41 121c16.667 26.667 25 46.334 25 59.001s-7.66699 19 -23 19
c-23.333 0 -35 -16.333 -35 -49c0 -11.333 1.66699 -25 5 -41l-13 -2c-10 25.333 -15 50.666 -15 75.999c0 73.333 24.667 110 74 110c20.667 -1.33301 36.167 -8.5 46.5 -21.5s15.5 -26.833 15.5 -41.5c0 -24 -12.333 -54.333 -37 -91c-27.333 -41.333 -41 -75 -41 -101
l1 -12c8.66699 -52.667 52 -79 130 -79c49.333 0 86.833 11.333 112.5 34s46.667 62.334 63 119.001s42 103.5 77 140.5s89.5 55.833 163.5 56.5c144.667 -4.66699 217 -80.334 217 -227.001c0 -92 -35.333 -160 -106 -204c-39.333 -18.667 -78 -28 -116 -28
c-58.667 0 -92.334 43.333 -101.001 130l16 10c40.667 -38.667 87.667 -58 141 -58c54.667 0.666992 91.667 16 111 46s29 58.667 29 86c-2 102 -64 153.333 -186 154h-4zM504.999 6c-46.667 82 -89.335 142.333 -128.002 181s-81.667 71 -129 97l23 59
c52.667 -18.667 100.334 -56 143.001 -112s78.334 -127.667 107.001 -215z" />
    <glyph glyph-name="uni1B32.td" unicode="&#x1b32;&#x1b35;" horiz-adv-x="985" 
d="M108 28l14.001 2c29.333 6.66699 51.666 39.667 66.999 99c-10.667 2.66699 -20.667 4 -30 4c-20.667 0 -39 -6.5 -55 -19.5s-24 -29.5 -24 -49.5v-8c2 -18.667 11.333 -28 28 -28zM524.001 173c-4 -67.333 -13 -113.165 -27 -137.498s-36 -37.5 -66 -39.5h-9
c-32 0 -65 16.333 -99 49c-38 35.333 -73 61 -105 77c-8 -35.333 -21.833 -65 -41.5 -89s-42.5 -36 -68.5 -36c-42 0 -63 23.667 -63 71l2 26c4.66699 29.333 19.667 55.666 45 78.999s50.666 35 75.999 35h38c6 39.333 9 69.666 9 90.999c0 44 -18.333 66 -55 66
c-32.667 0 -50.667 -17 -54 -51v-6c0 -18.667 7.66699 -40.667 23 -66l-8 -10c-34.667 30 -52 67.333 -52 112v12c2.66699 50 24.334 79 65.001 87l24 2c59.333 0 89 -38.333 89 -115c0 -34 -4.66699 -76.667 -14 -128c32.667 -8 69.167 -29 109.5 -63s71.5 -54 93.5 -60
l15 -2c28 0 42 39 42 117zM524.001 171.001l0.000976562 1.00098l-31 -41v67c4 160.667 75.667 242.667 215 246h35c128 -4.66699 192 -80.334 192 -227.001c0 -92 -35.333 -160 -106 -204c-39.333 -18.667 -78 -28 -116 -28c-58.667 0 -92.334 43.333 -101.001 130l16 10
c40.667 -38.667 87.667 -58 141 -58c54.667 0.666992 91.667 16 111 46s29 58.667 29 86c-2 102 -64 153.333 -186 154c-132.667 -3.33301 -199 -64 -199 -182z" />
    <glyph glyph-name="uni1B33.td" unicode="&#x1b33;&#x1b35;" horiz-adv-x="1177" 
d="M232 -4c-100 1.33301 -157 45.001 -171 131.001l-1 20c0 36 13.667 76.333 41 121c16.667 26.667 25 46.334 25 59.001s-7.66699 19 -23 19c-23.333 0 -35 -16.333 -35 -49c0 -11.333 1.66699 -25 5 -41l-13 -2c-10 25.333 -15 50.666 -15 75.999
c0 73.333 24.667 110 74 110c40.667 -2.66699 61 -23.667 61 -63c0 -24 -12 -54.333 -36 -91c-27.333 -41.333 -41 -75 -41 -101l1 -12c8.66699 -52.667 51.334 -79 128.001 -79c90.667 0 136 32.333 136 97v23c0 150.667 44.667 226 134 226c90 0 135.333 -80.667 136 -242
v-67c0 -45.333 7.66699 -69 23 -71c15.333 2 23.333 25.667 24 71l31 27c-0.666992 -104.667 -18.667 -157.334 -54 -158.001c-36.667 0.666992 -55 53.334 -55 158.001v30c-4.66699 102.667 -39.334 154 -104.001 154c-73.333 0 -110 -46.333 -110 -139v-21
c0 -64 -15.833 -110.833 -47.5 -140.5s-69.5 -44.834 -113.5 -45.501zM716 171.001l0.000976562 -12.999l-31 -27v67c4 160.667 75.667 242.667 215 246h35c128 -4.66699 192 -80.334 192 -227.001c0 -92 -35.333 -160 -106 -204c-39.333 -18.667 -78 -28 -116 -28
c-58.667 0 -92.334 43.333 -101.001 130l16 10c40.667 -38.667 87.667 -58 141 -58c54.667 0.666992 91.667 16 111 46s29 58.667 29 86c-2 102 -64 153.333 -186 154c-132.667 -3.33301 -199 -64 -199 -182z" />
    <glyph glyph-name="uni1B45.td" unicode="&#x1b45;&#x1b35;" horiz-adv-x="1256" 
d="M441 20c54.667 0 82 16.998 82 50.998c-1.33301 22 -24.833 41 -70.5 57s-94.5 25 -146.5 27v-5c0 -29.333 8.66699 -56.166 26 -80.499s44.333 -40.166 81 -47.499zM127 28.998l10.999 1c28.667 6.66699 45 46.334 49 119.001
c-55.333 -8.66699 -85.666 -35.334 -90.999 -80.001c0 -26.667 10.333 -40 31 -40zM448.999 -9.00195c-53.333 0 -94.6699 13.002 -124.003 39.002c-35.333 30.667 -53.666 73.334 -54.999 128.001c-16.667 0 -34.667 -1 -54 -3c-2 -104.667 -31 -157 -87 -157
c-44.667 0 -69 24 -73 72c0 42.667 13.833 77.167 41.5 103.5s57.834 42.166 90.501 47.499v31c-4 64 -23 96 -57 96c-30.667 0 -46 -20.333 -46 -61c0.666992 -25.333 5.66699 -48 15 -68l-17 -6c-25.333 37.333 -38 81.666 -38 132.999c0 61.333 25.667 92 77 92
c61.333 -1.33301 92 -52.333 92 -153v-57c14.667 2.66699 33.667 4.66699 57 6v10c1.33301 129.333 75.333 194.666 222 195.999c146 -1.33301 220.667 -82 224 -242v-67l-31 27v30c-1.33301 102.667 -65.333 154 -192 154c-123.333 0 -185 -35.333 -185 -106
c80.667 -1.33301 145.167 -15.5 193.5 -42.5s72.5 -60.833 72.5 -101.5c-2 -30.667 -14.167 -55.167 -36.5 -73.5s-52.166 -27.5 -89.499 -27.5zM794.995 171v-13c0 -104.667 -18 -157.334 -54 -158.001c-36 0.666992 -54.333 53.334 -55 158.001v30l31 10v-67
c0 -45.333 7.66699 -69 23 -71c15.333 2 23.333 25.667 24 71v67zM794.995 171l0.000976562 -12.999l-31 -27v67c4 160.667 75.667 242.667 215 246h35c128 -4.66699 192 -80.334 192 -227.001c0 -92 -35.333 -160 -106 -204c-39.333 -18.667 -78 -28 -116 -28
c-58.667 0 -92.334 43.333 -101.001 130l16 10c40.667 -38.667 87.667 -58 141 -58c54.667 0.666992 91.667 16 111 46s29 58.667 29 86c-2 102 -64 153.333 -186 154c-132.667 -3.33301 -199 -64 -199 -182zM306.996 -254.999l-6.00098 0.000976562
c-80.667 0 -121 48.333 -121 145c0 41.333 11 87.833 33 139.5s52.667 106.167 92 163.5l16 -9c-64 -101.333 -96 -189 -96 -263c0 -66.667 27.667 -100.334 83 -101.001c44 0 80.667 22.333 110 67l16 -8c-21.333 -88 -63.666 -132.667 -126.999 -134z" />
    <glyph glyph-name="uni1B46.td" unicode="&#x1b46;&#x1b35;" horiz-adv-x="1798" 
d="M441 20c54.667 0 82 16.998 82 50.998c-1.33301 22 -24.833 41 -70.5 57s-94.5 25 -146.5 27v-5c0 -29.333 8.66699 -56.166 26 -80.499s44.333 -40.166 81 -47.499zM127 28.998l10.999 1c28.667 6.66699 45 46.334 49 119.001
c-55.333 -8.66699 -85.666 -35.334 -90.999 -80.001c0 -26.667 10.333 -40 31 -40zM448.999 -9.00195c-53.333 0 -94.6699 13.002 -124.003 39.002c-35.333 30.667 -53.666 73.334 -54.999 128.001c-16.667 0 -34.667 -1 -54 -3c-2 -104.667 -31 -157 -87 -157
c-44.667 0 -69 24 -73 72c0 42.667 13.833 77.167 41.5 103.5s57.834 42.166 90.501 47.499v31c-4 64 -23 96 -57 96c-30.667 0 -46 -20.333 -46 -61c0.666992 -25.333 5.66699 -48 15 -68l-17 -6c-25.333 37.333 -38 81.666 -38 132.999c0 61.333 25.667 92 77 92
c61.333 -1.33301 92 -52.333 92 -153v-57c14.667 2.66699 33.667 4.66699 57 6v10c1.33301 129.333 75.333 194.666 222 195.999c146 -1.33301 220.667 -82 224 -242v-67l-31 47v10c-1.33301 102.667 -65.333 154 -192 154c-123.333 0 -185 -35.333 -185 -106
c80.667 -1.33301 145.167 -15.5 193.5 -42.5s72.5 -60.833 72.5 -101.5c-2 -30.667 -14.167 -55.167 -36.5 -73.5s-52.166 -27.5 -89.499 -27.5zM685.995 174v14l31 10v-23c0.666992 -28.667 13.167 -49.334 37.5 -62.001s55.833 -19 94.5 -19h6c49.333 0 84 9 104 27
s30 41.333 30 70v23c0 150.667 44.667 226 134 226c90 0 135.333 -80.667 136 -242v-67c0 -45.333 7.66699 -69 23 -71c15.333 2 23.333 25.667 24 71l31 27c-0.666992 -104.667 -18.667 -157.334 -54 -158.001h-2c-35.333 0.666992 -53 53.334 -53 158.001v30
c-5.33301 102.667 -40.333 154 -105 154c-73.333 0 -110 -46.333 -110 -139v-21c0 -64 -15.667 -110.833 -47 -140.5s-68.333 -44.834 -111 -45.501h-6c-50 0.666992 -88.667 14.834 -116 42.501s-43 72.834 -47 135.501zM1337 171l0.000976562 -12.999l-31 -27v67
c4 160.667 75.667 242.667 215 246h35c128 -4.66699 192 -80.334 192 -227.001c0 -92 -35.333 -160 -106 -204c-39.333 -18.667 -78 -28 -116 -28c-58.667 0 -92.334 43.333 -101.001 130l16 10c40.667 -38.667 87.667 -58 141 -58c54.667 0.666992 91.667 16 111 46
s29 58.667 29 86c-2 102 -64 153.333 -186 154c-132.667 -3.33301 -199 -64 -199 -182z" />
    <glyph glyph-name="uni1B47.td" unicode="&#x1b47;&#x1b35;" horiz-adv-x="1083" 
d="M260 -4l-6.00195 0.00195312c-115.333 1.33301 -179.333 45 -192 131l-2 21c0 36 13.667 76 41 120c16.667 26.667 25 46.334 25 59.001s-7.66699 19 -23 19c-23.333 0 -35 -16.333 -35 -49c0 -11.333 1.66699 -25 5 -41l-13 -2c-10 25.333 -15 50.666 -15 75.999
c0 73.333 24.667 110 74 110c41.333 -2.66699 62 -23.334 62 -62.001c0 -24 -12.333 -54.667 -37 -92c-32 -48 -48.667 -87 -50 -117c0 -28.667 12.833 -48.334 38.5 -59.001s71.834 -16 138.501 -16c108 1.33301 162.667 19.333 164 54c0 34 -36.667 51 -110 51
c-40 0 -82 -7 -126 -21c-6.66699 27.333 -10 53.333 -10 78l1 23c2 30.667 12.333 61 31 91c28 45.333 67.667 68.666 119 69.999h20c122.667 -1.33301 184 -87.333 184 -258v-51c0.666992 -45.333 8.66699 -69 24 -71c14.667 2 22.334 25.667 23.001 71l31 27
c0 -104.667 -17.667 -157.334 -53 -158.001h-2c-35.333 0.666992 -53.333 53.334 -54 158.001v30c-2 54 -17.667 95.5 -47 124.5s-70.666 43.5 -123.999 43.5c-80.667 0 -124.334 -38.667 -131.001 -116c42 24.667 81.333 37 118 37c38 0 70.333 -11 97 -33
s40 -55.333 40 -100c-4 -97.333 -72.667 -146.666 -206 -147.999zM621.998 171.002l0.000976562 -12.999l-31 -27v67c4 160.667 75.667 242.667 215 246h35c128 -4.66699 192 -80.334 192 -227.001c0 -92 -35.333 -160 -106 -204c-39.333 -18.667 -78 -28 -116 -28
c-58.667 0 -92.334 43.333 -101.001 130l16 10c40.667 -38.667 87.667 -58 141 -58c54.667 0.666992 91.667 16 111 46s29 58.667 29 86c-2 102 -64 153.333 -186 154c-132.667 -3.33301 -199 -64 -199 -182zM276.999 -254.997l-6.00098 0.000976562
c-80.667 0 -121 48.333 -121 145c0 41.333 11 87.833 33 139.5s52.667 106.167 92 163.5l16 -9c-64 -101.333 -96 -189 -96 -263c0 -66.667 27.667 -100.334 83 -101.001c44 0 80.667 22.333 110 67l16 -8c-21.333 -88 -63.666 -132.667 -126.999 -134z" />
    <glyph glyph-name="uni1B48.td" unicode="&#x1b48;&#x1b35;" horiz-adv-x="912" 
d="M651 353c-120 -2 -194.001 -50.333 -222.001 -145c-21.333 -74 -47.166 -127.167 -77.499 -159.5s-68.166 -49.833 -113.499 -52.5h-9c-98 1.33301 -154 45 -168 131l-1 20c0 36 13.667 76.333 41 121c16.667 26.667 25 46.334 25 59.001s-7.66699 19 -23 19
c-23.333 0 -35 -16.333 -35 -49c0 -11.333 1.66699 -25 5 -41l-13 -2c-10 25.333 -15 50.666 -15 75.999c0 73.333 24.667 110 74 110c20.667 -1.33301 36.167 -8.5 46.5 -21.5s15.5 -26.833 15.5 -41.5c0 -24 -12.333 -54.333 -37 -91c-27.333 -41.333 -41 -75 -41 -101
l1 -12c8.66699 -52.667 52 -79 130 -79c49.333 0 86.833 11.333 112.5 34s46.667 62.334 63 119.001s42 103.5 77 140.5s89.5 55.833 163.5 56.5c144.667 -4.66699 217 -80.334 217 -227.001c0 -92 -35.333 -160 -106 -204c-39.333 -18.667 -78 -28 -116 -28
c-58.667 0 -92.334 43.333 -101.001 130l16 10c40.667 -38.667 87.667 -58 141 -58c54.667 0.666992 91.667 16 111 46s29 58.667 29 86c-2 102 -64 153.333 -186 154h-4zM650.999 353c-120 -2 -194.001 -50.333 -222.001 -145c-21.333 -74 -47.166 -127.167 -77.499 -159.5
s-68.166 -49.833 -113.499 -52.5h-9c-98 1.33301 -154 45 -168 131l-1 20c0 36 13.667 76.333 41 121c16.667 26.667 25 46.334 25 59.001s-7.66699 19 -23 19c-23.333 0 -35 -16.333 -35 -49c0 -11.333 1.66699 -25 5 -41l-13 -2c-10 25.333 -15 50.666 -15 75.999
c0 73.333 24.667 110 74 110c20.667 -1.33301 36.167 -8.5 46.5 -21.5s15.5 -26.833 15.5 -41.5c0 -24 -12.333 -54.333 -37 -91c-27.333 -41.333 -41 -75 -41 -101l1 -12c8.66699 -52.667 52 -79 130 -79c49.333 0 86.833 11.333 112.5 34s46.667 62.334 63 119.001
s42 103.5 77 140.5s89.5 55.833 163.5 56.5c144.667 -4.66699 217 -80.334 217 -227.001c0 -92 -35.333 -160 -106 -204c-39.333 -18.667 -78 -28 -116 -28c-58.667 0 -92.334 43.333 -101.001 130l16 10c40.667 -38.667 87.667 -58 141 -58
c54.667 0.666992 91.667 16 111 46s29 58.667 29 86c-2 102 -64 153.333 -186 154h-4zM276.998 -255l-6.00098 0.000976562c-80.667 0 -121 48.333 -121 145c0 41.333 11 87.833 33 139.5s52.667 106.167 92 163.5l16 -9c-64 -101.333 -96 -189 -96 -263
c0 -66.667 27.667 -100.334 83 -101.001c44 0 80.667 22.333 110 67l16 -8c-21.333 -88 -63.666 -132.667 -126.999 -134z" />
    <glyph glyph-name="uni1B49.td" unicode="&#x1b49;&#x1b35;" horiz-adv-x="965" 
d="M915 217c0 -92 -35.332 -160 -105.999 -204c-39.333 -18.667 -78 -28 -116 -28c-58.667 0 -92.334 43.333 -101.001 130l16 10c40.667 -38.667 87.667 -58 141 -58c54.667 0.666992 91.667 16 111 46s29 58.667 29 86c-2 102 -65.667 153.333 -191 154
c-63.333 0 -122.333 -33 -177 -99l-16 9l1 19c0 60.667 -50 91.667 -150 93c47.333 -26 71 -73.667 71 -143v-11c0 -148.667 -65 -223.667 -195 -225c-100.667 1.33301 -157.334 45 -170.001 131l-2 21c0 36 13.667 76 41 120c16.667 26.667 25 46.334 25 59.001
s-7.66699 19 -23 19c-22.667 0 -34 -16.667 -34 -50c0 -11.333 1.33301 -24.666 4 -39.999l-13 -2c-10 25.333 -15 50.666 -15 75.999c0 73.333 25 110 75 110c16.667 -1.33301 31 -7.5 43 -18.5s18 -25.5 18 -43.5c0 -24 -12.333 -54.667 -37 -92
c-27.333 -41.333 -41 -75 -41 -101l1 -12c5.33301 -27.333 17.833 -47.333 37.5 -60s49.834 -19 90.501 -19c51.333 0 91.5 12.167 120.5 36.5s43.5 58.833 43.5 103.5c-0.666992 52.667 -20.334 90.667 -59.001 114c-18 6.66699 -35.667 10 -53 10
c-14 0 -28 -2.33301 -42 -7c17.333 60.667 58 91 122 91c83.333 0 139.333 -39.667 168 -119c36.667 80.667 98.334 121 185.001 121c132 -4.66699 198 -80.334 198 -227.001zM277.001 -255l-6.00098 0.000976562c-80.667 0 -121 48.333 -121 145
c0 41.333 11 87.833 33 139.5s52.667 106.167 92 163.5l16 -9c-64 -101.333 -96 -189 -96 -263c0 -66.667 27.667 -100.334 83 -101.001c44 0 80.667 22.333 110 67l16 -8c-21.333 -88 -63.666 -132.667 -126.999 -134z" />
    <glyph glyph-name="uni1B4A.td" unicode="&#x1b4a;&#x1b35;" horiz-adv-x="985" 
d="M108 28l14.001 2c29.333 6.66699 51.666 39.667 66.999 99c-10.667 2.66699 -20.667 4 -30 4c-20.667 0 -39 -6.5 -55 -19.5s-24 -29.5 -24 -49.5v-8c2 -18.667 11.333 -28 28 -28zM524.001 173c-4 -67.333 -13 -113.165 -27 -137.498s-36 -37.5 -66 -39.5h-9
c-32 0 -65 16.333 -99 49c-38 35.333 -73 61 -105 77c-8 -35.333 -21.833 -65 -41.5 -89s-42.5 -36 -68.5 -36c-42 0 -63 23.667 -63 71l2 26c4.66699 29.333 19.667 55.666 45 78.999s50.666 35 75.999 35h38c6 39.333 9 69.666 9 90.999c0 44 -18.333 66 -55 66
c-32.667 0 -50.667 -17 -54 -51v-6c0 -18.667 7.66699 -40.667 23 -66l-8 -10c-34.667 30 -52 67.333 -52 112v12c2.66699 50 24.334 79 65.001 87l24 2c59.333 0 89 -38.333 89 -115c0 -34 -4.66699 -76.667 -14 -128c32.667 -8 69.167 -29 109.5 -63s71.5 -54 93.5 -60
l15 -2c28 0 42 39 42 117zM524.001 171.001l0.000976562 1.00098l-31 -41v67c4 160.667 75.667 242.667 215 246h35c128 -4.66699 192 -80.334 192 -227.001c0 -92 -35.333 -160 -106 -204c-39.333 -18.667 -78 -28 -116 -28c-58.667 0 -92.334 43.333 -101.001 130l16 10
c40.667 -38.667 87.667 -58 141 -58c54.667 0.666992 91.667 16 111 46s29 58.667 29 86c-2 102 -64 153.333 -186 154c-132.667 -3.33301 -199 -64 -199 -182zM377.002 -254.998l-6.00098 0.000976562c-80.667 0 -121 48.333 -121 145c0 41.333 11 87.833 33 139.5
s52.667 106.167 92 163.5l16 -9c-64 -101.333 -96 -189 -96 -263c0 -66.667 27.667 -100.334 83 -101.001c44 0 80.667 22.333 110 67l16 -8c-21.333 -88 -63.666 -132.667 -126.999 -134z" />
    <glyph glyph-name="uni1B4B.td" unicode="&#x1b4b;&#x1b35;" horiz-adv-x="1772" 
d="M108 28l14 2c28.667 6.66699 51 39.667 67 99c-10.667 2.66699 -21 4 -31 4c-20 0 -38.167 -6.5 -54.5 -19.5s-24.5 -29.167 -24.5 -48.5l1 -9c2 -18.667 11.333 -28 28 -28zM1257.5 247c16.333 56.667 41.832 103.5 76.499 140.5s94 55.833 178 56.5
c140 -7.33301 210 -83 210 -227c0 -92 -35.333 -160 -106 -204c-39.333 -18.667 -78 -28 -116 -28c-58.667 0 -92.334 43.333 -101.001 130l16 10c40.667 -38.667 87.667 -58 141 -58c54.667 0.666992 91.667 16 111 46s29 58.667 29 86c-2 102 -65.333 153.333 -190 154
c-124.667 -2 -201 -50.333 -229 -145c-25.333 -86 -49.333 -142.333 -72 -169c-22.667 -26 -56.334 -40.333 -101.001 -43c-52.667 0.666992 -93.5 23 -122.5 67s-48.167 95.333 -57.5 154c-11.333 19.333 -15.666 93.333 -12.999 222h26
c2.66699 -128.667 16.334 -218.334 41.001 -269.001s66.667 -76 126 -76c50.667 0 84.834 11.333 102.501 34s34.667 62.334 51 119.001zM923.999 217c-21.333 -146 -81.001 -219.666 -179.001 -220.999h-6c-84.667 1.33301 -127.667 68.333 -129 201
c-2 90.667 -31 139 -87 145v-165c-3.33301 -62.667 -11 -107.834 -23 -135.501s-35 -42.834 -69 -45.501h-9c-32 0 -65 16.333 -99 49c-38 35.333 -73.333 61 -106 77c-7.33301 -35.333 -20.833 -65 -40.5 -89s-42.5 -36 -68.5 -36c-42 0 -63 23.667 -63 71l2 26
c12 76 65 114 159 114c6 39.333 9 69.666 9 90.999c0 44 -18.667 66 -56 66c-32 0 -49.667 -17 -53 -51v-7c0 -18 7.33301 -39.667 22 -65l-8 -10c-34.667 30 -52 67.333 -52 112v12c2.66699 50 24.667 79 66 87l24 2c58.667 0 88 -37.667 88 -113
c0 -34 -4.66699 -77.333 -14 -130c32.667 -8 69.334 -29 110.001 -63s72 -54 94 -60l15 -2c27.333 0 41 37.667 41 113v252c95.333 -7.33301 144.666 -63.666 147.999 -168.999v-77c1.33301 -68 37.666 -102 108.999 -102h5c52.667 0 91.334 25.333 116.001 76
s38.334 140.334 41.001 269.001h26z" />
    <glyph glyph-name=".notdef" horiz-adv-x="600" 
d="M94 0v714h411v-714h-411zM145 663v-612h309v612h-309z" />
    <glyph glyph-name=".null" 
 />
    <glyph glyph-name=".null" 
 />
    <glyph glyph-name="space" unicode=" " horiz-adv-x="260" 
 />
    <glyph glyph-name="question" unicode="?" horiz-adv-x="532" 
d="M186 222v30.0049c0 42.667 7 77.5 21 104.5s38 54.833 72 83.5c39.333 33.333 65.166 57.166 77.499 71.499s21 28.666 26 42.999s7.5 31.166 7.5 50.499c0 35.333 -11.5 62.666 -34.5 81.999s-56.167 29 -99.5 29c-28.667 0 -56.834 -3.66699 -84.501 -11
s-58.5 -19.333 -92.5 -36l-34 77c68.667 36.667 141.334 55 218.001 55c68 0 121.667 -17 161 -51s59 -81.667 59 -143c0 -26.667 -3.66699 -50.334 -11 -71.001s-18.166 -40.167 -32.499 -58.5s-43.5 -45.5 -87.5 -81.5c-35.333 -30.667 -58.833 -56 -70.5 -76
s-17.5 -46.333 -17.5 -79v-19h-78zM161 60.0049c0 49.333 23.001 74 69.001 74c20.667 0 37 -6.16699 49 -18.5s18 -30.833 18 -55.5c0 -24 -6.16699 -42.667 -18.5 -56s-28.5 -20 -48.5 -20c-20.667 0 -37.334 6 -50.001 18s-19 31.333 -19 58z" />
    <glyph glyph-name="nonbreakingspace" unicode="&#xa0;" horiz-adv-x="260" 
 />
    <glyph glyph-name="uni1B00" unicode="&#x1b00;" 
d="M-183 545c26 37.333 39 83.6689 39 139.002c0 117.333 -58 176 -174 176c-56 0 -99.333 -15.333 -130 -46c-32 -30.667 -48 -75.334 -48 -134.001c0 -52.667 14 -97.667 42 -135l-13 -12c-52 47.333 -78 118.666 -78 213.999v7c7.33301 70 31 121.333 71 154
c40.667 32.667 92.667 49 156 49c138 0 213.667 -67.667 227 -203v-4c0 -96.667 -26.333 -169 -79 -217zM-270 563.003c24.667 25.333 37.002 54.666 37.002 87.999v3c-4.66699 42.667 -33.334 64.334 -86.001 65.001c-52.667 -0.666992 -81.334 -22.334 -86.001 -65.001v-3
c0 -33.333 12.333 -62.666 37 -87.999l-11 -11c-41.333 35.333 -63.333 72.666 -66 111.999c0 80.667 40 121 120 121h12c80 0 120 -40.333 120 -121c-2.66699 -39.333 -24.667 -76.666 -66 -111.999z" />
    <glyph glyph-name="uni1B01" unicode="&#x1b01;" 
d="M-427 594c21.333 -9.33301 50 -14.667 86 -16c33.333 0.666992 62 5.66699 86 15c-13.333 60.667 -42 91 -86 91s-72.667 -30 -86 -90zM-332 979.999l12 -240h-44l11 240h21zM-234 600.999c59.333 24.667 91.667 74 97 148h17v-8c0 -162.667 -73.667 -245 -221 -247
c-147.333 2 -221 84.333 -221 247v8h17c5.33301 -74.667 38 -123.667 98 -147c0 96.667 35.333 145 106 145c71.333 0 107 -48.667 107 -146z" />
    <glyph glyph-name="uni1B02" unicode="&#x1b02;" 
d="M-125 542c-31.333 98.667 -82.667 183 -154 253l38 59c39.333 -24 70 -65.833 92 -125.5s36 -120.5 42 -182.5z" />
    <glyph glyph-name="uni1B03" unicode="&#x1b03;" 
d="M-118 533c-154.667 0 -273.668 45.998 -357.001 137.998c-71.333 84.667 -114.666 185.334 -129.999 302.001l80 -21c24.667 -99.333 62 -184.666 112 -255.999c64.667 -88.667 165 -137 301 -145z" />
    <glyph glyph-name="uni1B04" unicode="&#x1b04;" horiz-adv-x="273" 
d="M186 -799c-69.333 118 -103.999 234.002 -103.999 348.002c0 72 14 145 42 219c50.667 131.333 76 227.666 76 288.999c0 27.333 -5 47.666 -15 60.999c-32 43.333 -79.333 70 -142 80v33h13c89.333 0 136.666 20.333 141.999 61l1 13c0 33.333 -19.333 50 -58 50
c-44 -0.666992 -72.667 -23 -86 -67l-15 3v12c0 82.667 27.333 127.667 82 135l28 2c66 0 99 -37.333 99 -112c0 -60.667 -29.667 -99.334 -89 -116.001c56 -22.667 84 -77.667 84 -165c0 -69.333 -20.667 -172.666 -62 -309.999c-21.333 -72.667 -32 -146 -32 -220
c0 -95.333 18.333 -196.333 55 -303z" />
    <glyph glyph-name="uni1B05" unicode="&#x1b05;" horiz-adv-x="918" 
d="M591 -4c-96.667 1.33301 -145 58 -145 170v5l12 2c16.667 -52.667 61 -79 133 -79c87.333 0 131 46.667 131 140v208c95.333 -7.33301 144.333 -63.666 147 -168.999v-273h-30v198c-2 90 -31 138 -87 144v-155c0 -57.333 -14.167 -103.333 -42.5 -138
s-67.833 -52.334 -118.5 -53.001zM785 6c-46.667 82 -89.335 142.333 -128.002 181s-81.667 71 -129 97l23 59c52.667 -18.667 100.334 -56 143.001 -112s78.334 -127.667 107.001 -215zM246.999 0l-4.99902 0.000976562c-60.667 2 -108.667 23.833 -144 65.5
s-53 99.5 -53 173.5l1 35c6 82.667 32.833 149.167 80.5 199.5s108.5 76.5 182.5 78.5l2 -12c-62 -13.333 -113.833 -42 -155.5 -86s-65.834 -96.667 -72.501 -158l-2 -36c0 -48.667 13.5 -87.667 40.5 -117s65.167 -46 114.5 -50c71.333 0 107 19 107 57
c0 28.667 -27.667 44.667 -83 48h-26v33h36c48.667 2.66699 73 22.667 73 60c-6.66699 30 -30.667 45.333 -72 46c-54 -0.666992 -92.333 -17.334 -115 -50.001l-16 8c19.333 87.333 64.333 131 135 131h8c74.667 -3.33301 113 -38.333 115 -105
c-2 -60 -30.667 -95.333 -86 -106c54.667 -7.33301 82 -39 82 -95v-6c-6.66699 -76 -55.667 -114 -147 -114z" />
    <glyph glyph-name="uni1B06" unicode="&#x1b06;" horiz-adv-x="1304" 
d="M1030 444c144.667 -4.66699 216.999 -80.334 216.999 -227.001c0 -92 -35.333 -160 -106 -204c-39.333 -18.667 -78 -28 -116 -28c-58.667 0 -92.334 43.333 -101.001 130l16 10c40.667 -38.667 87.667 -58 141 -58c54.667 0.666992 91.667 16 111 46s29 58.667 29 86
c-2 102 -64 153.333 -186 154h-4c-120 -2 -194 -50.333 -222 -145c-21.333 -74 -47.166 -127.167 -77.499 -159.5s-68.166 -49.833 -113.499 -52.5h-12c-103.333 1.33301 -157 62 -161 182l10 3c24.667 -58 76.667 -87 156 -87c51.333 0 89.833 11.333 115.5 34
s46.667 62.334 63 119.001s42 103.5 77 140.5s89.5 55.833 163.5 56.5zM884.999 6c-46.667 82 -89.335 142.333 -128.002 181s-81.667 71 -129 97l23 59c52.667 -18.667 100.334 -56 143.001 -112s78.334 -127.667 107.001 -215zM246.998 0l-4.99902 0.000976562
c-60.667 2 -108.667 23.833 -144 65.5s-53 99.5 -53 173.5l1 35c6 82.667 32.833 149.167 80.5 199.5s108.5 76.5 182.5 78.5l2 -12c-62 -13.333 -113.833 -42 -155.5 -86s-65.834 -96.667 -72.501 -158l-2 -36c0 -48.667 13.5 -87.667 40.5 -117s65.167 -46 114.5 -50
c71.333 0 107 19 107 57c0 28.667 -27.667 44.667 -83 48h-26v33h36c48.667 2.66699 73 22.667 73 60c-6.66699 30 -30.667 45.333 -72 46c-54 -0.666992 -92.333 -17.334 -115 -50.001l-16 8c19.333 87.333 64.333 131 135 131h8c74.667 -3.33301 113 -38.333 115 -105
c-2 -60 -30.667 -95.333 -86 -106c54.667 -7.33301 82 -39 82 -95v-6c-6.66699 -76 -55.667 -114 -147 -114z" />
    <glyph glyph-name="uni1B07" unicode="&#x1b07;" horiz-adv-x="823" 
d="M295 -5l-91 105c-10 23.333 -16.333 54.666 -19 93.999c2 160 48 241.667 138 245c36.667 0 67.334 -9.66699 92.001 -29s46 -48.333 64 -87c18 38.667 38.667 67.667 62 87s55 29 95 29c91.333 -4 137 -86.333 137 -247v-192h-30v184
c-0.666992 99.333 -37.334 152 -110.001 158h-25c-53.333 -6 -96 -30 -128 -72h-2c-32 42 -74.667 66 -128 72h-25c-56 -4.66699 -90.333 -36.667 -103 -96l-2 -44c0 -83.333 28.333 -147.666 85 -192.999zM305 9l-9.99902 -13.999c-50.667 10.667 -98.334 26 -143.001 46
c-54.667 23.333 -82 64 -82 122c0 32.667 10 67.667 30 105c16.667 26.667 25 46.667 25 60c0 12 -7.33301 18 -22 18c-23.333 0 -35 -16.333 -35 -49c0 -11.333 1.66699 -25 5 -41l-14 -2c-9.33301 24.667 -14 49.334 -14 74.001c0 74.667 24.667 112 74 112
c40.667 -2.66699 61 -23.334 61 -62.001c0 -24 -12 -54.333 -36 -91s-36 -67.334 -36 -92.001c0 -40 32 -71.667 96 -95zM464.001 -355.999c-71.333 0 -127 31.666 -167 94.999l13 13c42.667 -32.667 90.667 -49 144 -49c52.667 0.666992 79 14 79 40v3
c-2 27.333 -36.5 47.5 -103.5 60.5s-102.167 41.167 -105.5 84.5c1.33301 48.667 28.666 74.334 81.999 77.001h8c48.667 0 87 -17.333 115 -52l-9 -11c-29.333 18.667 -58.666 28 -87.999 28h-6c-31.333 -1.33301 -50.333 -13 -57 -35v-6c0 -23.333 23.333 -40.333 70 -51
c90.667 -16 136 -51.667 136 -107v-4c-2 -57.333 -39 -86 -111 -86z" />
    <glyph glyph-name="uni1B08" unicode="&#x1b08;" horiz-adv-x="1301" 
d="M295 -5l-91 105c-10 23.333 -16.333 54.666 -19 93.999c2 160 48 241.667 138 245c36.667 0 67.334 -9.66699 92.001 -29s46 -48.333 64 -87c18 38.667 38.667 67.667 62 87s55 29 95 29c91.333 -4 137 -86.333 137 -247v-192h-30v184
c-0.666992 99.333 -37.334 152 -110.001 158h-25c-53.333 -6 -96 -30 -128 -72h-2c-32 42 -74.667 66 -128 72h-25c-56 -4.66699 -90.333 -36.667 -103 -96l-2 -44c0 -83.333 28.333 -147.666 85 -192.999zM305 9l-9.99902 -13.999c-50.667 10.667 -98.334 26 -143.001 46
c-54.667 23.333 -82 64 -82 122c0 32.667 10 67.667 30 105c16.667 26.667 25 46.667 25 60c0 12 -7.33301 18 -22 18c-23.333 0 -35 -16.333 -35 -49c0 -11.333 1.66699 -25 5 -41l-14 -2c-9.33301 24.667 -14 49.334 -14 74.001c0 74.667 24.667 112 74 112
c40.667 -2.66699 61 -23.334 61 -62.001c0 -24 -12 -54.333 -36 -91s-36 -67.334 -36 -92.001c0 -40 32 -71.667 96 -95zM464.001 -355.999c-71.333 0 -127 31.666 -167 94.999l13 13c42.667 -32.667 90.667 -49 144 -49c52.667 0.666992 79 14 79 40v3
c-2 27.333 -36.5 47.5 -103.5 60.5s-102.167 41.167 -105.5 84.5c1.33301 48.667 28.666 74.334 81.999 77.001h8c48.667 0 87 -17.333 115 -52l-9 -11c-29.333 18.667 -58.666 28 -87.999 28h-6c-31.333 -1.33301 -50.333 -13 -57 -35v-6c0 -23.333 23.333 -40.333 70 -51
c90.667 -16 136 -51.667 136 -107v-4c-2 -57.333 -39 -86 -111 -86zM1045 -15c-58.667 0 -92.332 43.332 -100.999 129.999l16 10c40.667 -38.667 87.667 -58 141 -58c54.667 0.666992 91.667 16 111 46s29 58.667 29 86c-2 94.667 -64 142.334 -186 143.001
c-120.667 0 -203.334 -19 -248.001 -57l-13 12c57.333 94 144 141.667 260 143h21c128 -18 192 -92.333 192 -223c0 -92 -35.333 -160 -106 -204c-39.333 -18.667 -78 -28 -116 -28z" />
    <glyph glyph-name="uni1B09" unicode="&#x1b09;" horiz-adv-x="578" 
d="M223 -803c-180.667 61.333 -270.999 175.669 -270.999 343.002c0 77.333 25 150.333 75 219s120.333 120.667 211 156c86.667 34 150.834 71.5 192.501 112.5s62.5 88.833 62.5 143.5c0 109.333 -53.333 166.333 -160 171c-49.333 0 -86 -14.333 -110 -43
s-36 -65 -36 -109c0 -32.667 9.66699 -64 29 -94l-22 -13c-99.333 55.333 -149 124 -149 206l2 31l17 5c24.667 -84.667 56 -139.334 94 -164.001c-10 26.667 -15 53 -15 79c0 38 10.667 75 32 111c35.333 59.333 87.666 89 156.999 89c130.667 -2 196 -89.667 196 -263
c0 -89.333 -19.833 -164.5 -59.5 -225.5s-98.834 -104.5 -177.501 -130.5c-198.667 -66.667 -298 -164.334 -298 -293.001c0 -118.667 60.667 -208 182 -268c-18.667 32.667 -28 66.667 -28 102c0 135.333 79.333 205 238 209h12l-6 -99c-138.667 -2 -208 -47.333 -208 -136
c0 -38.667 15.333 -82 46 -130zM698.001 -798.997c-49.333 178.667 -151.667 269 -307 271l-6 99h12c96 -3.33301 166.667 -35.5 212 -96.5s81.333 -149.5 108 -265.5z" />
    <glyph glyph-name="uni1B0A" unicode="&#x1b0a;" horiz-adv-x="1054" 
d="M805 -15c-58.667 0 -92.332 43.332 -100.999 129.999l16 10c40.667 -38.667 87.667 -58 141 -58c54.667 0.666992 91.667 16 111 46s29 58.667 29 86c-2 94.667 -64 142.334 -186 143.001c-120.667 0 -203.334 -19 -248.001 -57l-13 12c57.333 94 144 141.667 260 143h21
c128 -18 192 -92.333 192 -223c0 -92 -35.333 -160 -106 -204c-39.333 -18.667 -78 -28 -116 -28zM223.002 -803.001c-180.667 61.333 -270.999 175.669 -270.999 343.002c0 77.333 25 150.333 75 219s120.333 120.667 211 156c86.667 34 150.834 71.5 192.501 112.5
s62.5 88.833 62.5 143.5c0 109.333 -53.333 166.333 -160 171c-49.333 0 -86 -14.333 -110 -43s-36 -65 -36 -109c0 -32.667 9.66699 -64 29 -94l-22 -13c-99.333 55.333 -149 124 -149 206l2 31l17 5c24.667 -84.667 56 -139.334 94 -164.001c-10 26.667 -15 53 -15 79
c0 38 10.667 75 32 111c35.333 59.333 87.666 89 156.999 89c130.667 -2 196 -89.667 196 -263c0 -89.333 -19.833 -164.5 -59.5 -225.5s-98.834 -104.5 -177.501 -130.5c-198.667 -66.667 -298 -164.334 -298 -293.001c0 -118.667 60.667 -208 182 -268
c-18.667 32.667 -28 66.667 -28 102c0 135.333 79.333 205 238 209h12l-6 -99c-138.667 -2 -208 -47.333 -208 -136c0 -38.667 15.333 -82 46 -130zM698.003 -798.998c-49.333 178.667 -151.667 269 -307 271l-6 99h12c96 -3.33301 166.667 -35.5 212 -96.5
s81.333 -149.5 108 -265.5z" />
    <glyph glyph-name="uni1B0B" unicode="&#x1b0b;" horiz-adv-x="586" 
d="M232 -4c-100.667 1.33301 -157.333 45.001 -170 131.001l-2 21c0 36 13.667 76 41 120c16.667 26.667 25 46.334 25 59.001s-7.66699 19 -23 19c-23.333 0 -35 -16.333 -35 -49c0 -11.333 1.66699 -25 5 -41l-13 -2c-10 25.333 -15 50.666 -15 75.999
c0 73.333 24.667 110 74 110c41.333 -2.66699 62 -23.334 62 -62.001c0 -24 -12.333 -54.667 -37 -92c-27.333 -41.333 -41 -75 -41 -101l1 -12c8.66699 -52.667 51.334 -79 128.001 -79c50.667 0 90.667 12.167 120 36.5s44 58.833 44 103.5v208
c95.333 -7.33301 144.666 -63.666 147.999 -168.999v-273h-30v198c-2 90 -31 138 -87 144v-155c0 -57.333 -17.5 -103.333 -52.5 -138s-82.5 -52.334 -142.5 -53.001zM284.001 -355.999c-71.333 0 -127 31.666 -167 94.999l13 13c42.667 -32.667 90.667 -49 144 -49
c52.667 0.666992 79 14 79 40v3c-2 27.333 -36.5 47.5 -103.5 60.5s-102.167 41.167 -105.5 84.5c1.33301 48.667 28.666 74.334 81.999 77.001h8c48.667 0 87 -17.333 115 -52l-9 -11c-29.333 18.667 -58.666 28 -87.999 28h-6c-31.333 -1.33301 -50.333 -13 -57 -35v-6
c0 -23.333 23.333 -40.333 70 -51c90.667 -16 136 -51.667 136 -107v-4c-2 -57.333 -39 -86 -111 -86z" />
    <glyph glyph-name="uni1B0C" unicode="&#x1b0c;" horiz-adv-x="586" 
d="M232 -4c-100.667 1.33301 -157.333 45.001 -170 131.001l-2 21c0 36 13.667 76 41 120c16.667 26.667 25 46.334 25 59.001s-7.66699 19 -23 19c-23.333 0 -35 -16.333 -35 -49c0 -11.333 1.66699 -25 5 -41l-13 -2c-10 25.333 -15 50.666 -15 75.999
c0 73.333 24.667 110 74 110c41.333 -2.66699 62 -23.334 62 -62.001c0 -24 -12.333 -54.667 -37 -92c-27.333 -41.333 -41 -75 -41 -101l1 -12c8.66699 -52.667 51.334 -79 128.001 -79c50.667 0 90.667 12.167 120 36.5s44 58.833 44 103.5v208
c95.333 -7.33301 144.666 -63.666 147.999 -168.999v-273h-30v198c-2 90 -31 138 -87 144v-155c0 -57.333 -17.5 -103.333 -52.5 -138s-82.5 -52.334 -142.5 -53.001zM266.001 -392.999l-16 11.001c22 34 33 67.333 33 100c0 34 -22.167 55.667 -66.5 65s-66.5 29 -66.5 59
c0 26 20 60.667 60 104l16 -9c-16 -20.667 -24 -39.334 -24 -56.001c0 -22 21.167 -37 63.5 -45s63.5 -32.333 63.5 -73c-2 -42.667 -23 -94.667 -63 -156z" />
    <glyph glyph-name="uni1B0D" unicode="&#x1b0d;" horiz-adv-x="823" 
d="M295 -5l-91 105c-10 23.333 -16.333 54.666 -19 93.999c2 160 48 241.667 138 245c36.667 0 67.334 -9.66699 92.001 -29s46 -48.333 64 -87c18 38.667 38.667 67.667 62 87s55 29 95 29c91.333 -4 137 -86.333 137 -247v-192h-30v184
c-0.666992 99.333 -37.334 152 -110.001 158h-25c-53.333 -6 -96 -30 -128 -72h-2c-32 42 -74.667 66 -128 72h-25c-56 -4.66699 -90.333 -36.667 -103 -96l-2 -44c0 -83.333 28.333 -147.666 85 -192.999zM305 9l-9.99902 -13.999c-50.667 10.667 -98.334 26 -143.001 46
c-54.667 23.333 -82 64 -82 122c0 32.667 10 67.667 30 105c16.667 26.667 25 46.667 25 60c0 12 -7.33301 18 -22 18c-23.333 0 -35 -16.333 -35 -49c0 -11.333 1.66699 -25 5 -41l-14 -2c-9.33301 24.667 -14 49.334 -14 74.001c0 74.667 24.667 112 74 112
c40.667 -2.66699 61 -23.334 61 -62.001c0 -24 -12 -54.333 -36 -91s-36 -67.334 -36 -92.001c0 -40 32 -71.667 96 -95zM570.001 -798.999l-33.998 7.99805c6 28.667 9 55.334 9 80.001c0 99.333 -39.5 164.666 -118.5 195.999s-138.167 66 -177.5 104s-59 87.667 -59 149
c0 55.333 19.167 104 57.5 146s91.166 63 158.499 63c119.333 -1.33301 230.666 -59 333.999 -173l-20 -69c-42 50 -96.333 87.167 -163 111.5s-123.667 37.5 -171 39.5h-12c-94.667 0 -142 -41 -142 -123c0 -85.333 57.333 -149.5 172 -192.5s173 -116.167 175 -219.5
c50 124 88.5 238.167 115.5 342.5s43.167 216.833 48.5 337.5h30c-2 -135.333 -17.667 -260.166 -47 -374.499s-81.333 -256.166 -156 -425.499z" />
    <glyph glyph-name="uni1B0E" unicode="&#x1b0e;" horiz-adv-x="823" 
d="M295 -5l-91 105c-10 23.333 -16.333 54.666 -19 93.999c2 160 48 241.667 138 245c36.667 0 67.334 -9.66699 92.001 -29s46 -48.333 64 -87c18 38.667 38.667 67.667 62 87s55 29 95 29c91.333 -4 137 -86.333 137 -247v-192h-30v184
c-0.666992 99.333 -37.334 152 -110.001 158h-25c-53.333 -6 -96 -30 -128 -72h-2c-32 42 -74.667 66 -128 72h-25c-56 -4.66699 -90.333 -36.667 -103 -96l-2 -44c0 -83.333 28.333 -147.666 85 -192.999zM305 9l-9.99902 -13.999c-50.667 10.667 -98.334 26 -143.001 46
c-54.667 23.333 -82 64 -82 122c0 32.667 10 67.667 30 105c16.667 26.667 25 46.667 25 60c0 12 -7.33301 18 -22 18c-23.333 0 -35 -16.333 -35 -49c0 -11.333 1.66699 -25 5 -41l-14 -2c-9.33301 24.667 -14 49.334 -14 74.001c0 74.667 24.667 112 74 112
c40.667 -2.66699 61 -23.334 61 -62.001c0 -24 -12 -54.333 -36 -91s-36 -67.334 -36 -92.001c0 -40 32 -71.667 96 -95zM570.001 -798.999l-33.998 7.99805c6 28.667 9 55.334 9 80.001c0 99.333 -39.5 164.666 -118.5 195.999s-138.167 66 -177.5 104s-59 87.667 -59 149
c0 55.333 19.167 104 57.5 146s91.166 63 158.499 63c119.333 -1.33301 230.666 -59 333.999 -173l-20 -69c-42 50 -96.333 87.167 -163 111.5s-123.667 37.5 -171 39.5h-12c-94.667 0 -142 -41 -142 -123c0 -85.333 57.333 -149.5 172 -192.5s173 -116.167 175 -219.5
c50 124 88.5 238.167 115.5 342.5s43.167 216.833 48.5 337.5h30c-2 -135.333 -17.667 -260.166 -47 -374.499s-81.333 -256.166 -156 -425.499zM828.003 -622.001h-6.99707c-69.333 2.66699 -117 49 -143 139l17 8c22 -40.667 59.333 -61.667 112 -63c52 0 78 19 78 57
c-0.666992 36 -28.667 55.333 -84 58h-26v24c71.333 16.667 107 47.667 107 93v4c0 40.667 -27.333 62 -82 64c-32.667 0 -59 -7.33301 -79 -22l-6 7c29.333 48 65.666 72 108.999 72c67.333 0 101.666 -29 102.999 -87v-5c0 -56 -24.333 -97 -73 -123
c56 -14 84 -53 84 -117c-8.66699 -72.667 -45.334 -109 -110.001 -109z" />
    <glyph glyph-name="uni1B0F" unicode="&#x1b0f;" horiz-adv-x="554" 
d="M476 -3l-8 5.00293c12 27.333 18 52.333 18 75c0 63.333 -44 96.333 -132 99c-107.333 -0.666992 -161 -37.334 -161 -110.001c0 -19.333 5.33301 -39 16 -59l-7 -8c-98.667 17.333 -155.667 71.333 -171 162l-1 23c0 143.333 89.333 234.666 268 273.999l6 -11
c-162 -84 -243 -178.667 -243 -284c4 -48.667 39.333 -78.334 106 -89.001l-1 22c0 49.333 15.833 90.5 47.5 123.5s78.5 49.5 140.5 49.5c59.333 0 103 -14.667 131 -44s42 -66.666 42 -111.999c0 -42.667 -17 -81.334 -51 -116.001z" />
    <glyph glyph-name="uni1B10" unicode="&#x1b10;" horiz-adv-x="1108" 
d="M732 -805c-10.667 39.333 -34.334 86.668 -71.001 142.001s-77.667 83 -123 83c-50 0 -94.167 -37.167 -132.5 -111.5s-96.833 -112.166 -175.5 -113.499c-143.333 1.33301 -215 103.666 -215 306.999c0 84 19.333 157.667 58 221c52 87.333 173.5 144.5 364.5 171.5
s292.5 115.167 304.5 264.5c0 116 -36.333 177 -109 183h-25c-53.333 -6 -96 -30 -128 -72h-2c-32 42 -74.667 66 -128 72h-24c-56.667 -4.66699 -91.334 -36.667 -104.001 -96l-2 -44c0 -83.333 28.333 -147.666 85 -192.999l-10 -14
c-50.667 10.667 -98.334 26 -143.001 46c-54.667 23.333 -82 64 -82 122c0 32.667 10 67.667 30 105c16.667 26.667 25 46.667 25 60c0 12 -7.33301 18 -22 18c-23.333 0 -35 -16.333 -35 -49c0 -11.333 1.66699 -25 5 -41l-14 -2c-9.33301 24.667 -14 49.334 -14 74.001
c0 74.667 24.667 112 74 112c40.667 -2.66699 61 -23.334 61 -62.001c0 -24 -12 -54.333 -36 -91s-36 -67.334 -36 -92.001c0 -40 32 -71.667 96 -95c-10 23.333 -16.333 54.666 -19 93.999c2 160 48 241.667 138 245c36.667 0 67.334 -9.66699 92.001 -29
s46 -48.333 64 -87c17.333 37.333 37.5 66 60.5 86s55.167 30 96.5 30c90.667 -4 136 -94.333 136 -271v-17c0 -204 -92.667 -318 -278 -342c-165.333 -22 -279.666 -57.167 -342.999 -105.5s-95 -114.833 -95 -199.5c0 -140.667 58 -211 174 -211
c92 0 152.833 35.333 182.5 106s78.167 107 145.5 109c64.667 -0.666992 117.834 -25 159.501 -73s69.834 -95.333 84.501 -142c133.333 0 200.666 107.667 201.999 323v574l31 3v-630c0 -244 -101 -366.667 -303 -368zM920 383.002c14.667 0 29.333 2.33301 44 7
c-28.667 60.667 -62 91 -100 91c-26.667 -1.33301 -40 -13.333 -40 -36c0 -17.333 9 -32 27 -44s41 -18 69 -18zM1035 -114.998l-30.999 31v274c0 50 -3.33301 85.667 -10 107l-36 -4c-54.667 1.33301 -96.667 14.5 -126 39.5s-45 53.833 -47 86.5v12c0 54 26.333 81 79 81
c51.333 0 94.666 -37.333 129.999 -112c53.333 28.667 90 71.667 110 129h12l2 -37c0 -79.333 -30.667 -138 -92 -176c6 -30 9 -71 9 -123v-308z" />
    <glyph glyph-name="uni1B11" unicode="&#x1b11;" horiz-adv-x="822" 
d="M766 -799c-49.333 178.667 -151.665 269.002 -306.998 271.002c-138 -2 -207 -47.667 -207 -137c0 -38 15 -81 45 -129l-5 -9c-180.667 61.333 -271 175.666 -271 342.999c0 64.667 17.333 125.667 52 183c52 87.333 175.167 144.5 369.5 171.5
s294.166 115.167 299.499 264.5c0 116 -36.333 177 -109 183h-25c-53.333 -6 -96 -30 -128 -72h-2c-32 42 -74.667 66 -128 72h-24c-56.667 -4.66699 -91.334 -36.667 -104.001 -96l-2 -44c0 -83.333 28.333 -147.666 85 -192.999l-10 -14
c-50.667 10.667 -98.334 26 -143.001 46c-54.667 23.333 -82 64 -82 122c0 32.667 10 67.667 30 105c16.667 26.667 25 46.667 25 60c0 12 -7.33301 18 -22 18c-23.333 0 -35 -16.333 -35 -49c0 -11.333 1.66699 -25 5 -41l-14 -2c-9.33301 24.667 -14 49.334 -14 74.001
c0 74.667 24.667 112 74 112c40.667 -2.66699 61 -23.334 61 -62.001c0 -24 -12 -54.333 -36 -91s-36 -67.334 -36 -92.001c0 -40 32 -71.667 96 -95c-10 23.333 -16.333 54.666 -19 93.999c2 160 48 241.667 138 245c36.667 0 67.334 -9.66699 92.001 -29
s46 -48.333 64 -87c17.333 37.333 37.5 66 60.5 86s55.167 30 96.5 30c90.667 -4 136 -94.333 136 -271v-17c0 -204 -92.667 -318 -278 -342c-156 -20.667 -267.167 -53.5 -333.5 -98.5s-99.5 -105.167 -99.5 -180.5c0 -120 61 -210 183 -270
c-18.667 32.667 -28 66.667 -28 102c0 32.667 7.66699 66 23 100c30.667 70 102 106.333 214 109h12c96 -3.33301 166.667 -35.5 212 -96.5s81.333 -149.5 108 -265.5z" />
    <glyph glyph-name="uni1B12" unicode="&#x1b12;" horiz-adv-x="1299" 
d="M1045 -15c-58.667 0 -92.332 43.332 -100.999 129.999l16 10c40.667 -38.667 87.667 -58 141 -58c54.667 0.666992 91.667 16 111 46s29 58.667 29 86c-2 94.667 -64 142.334 -186 143.001c-120.667 0 -203.334 -19 -248.001 -57l-13 12c57.333 94 144 141.667 260 143
h21c128 -18 192 -92.333 192 -223c0 -92 -35.333 -160 -106 -204c-39.333 -18.667 -78 -28 -116 -28zM766.002 -799.001c-49.333 178.667 -151.665 269.002 -306.998 271.002c-138 -2 -207 -47.667 -207 -137c0 -38 15 -81 45 -129l-5 -9
c-180.667 61.333 -271 175.666 -271 342.999c0 64.667 17.333 125.667 52 183c52 87.333 175.167 144.5 369.5 171.5s294.166 115.167 299.499 264.5c0 116 -36.333 177 -109 183h-25c-53.333 -6 -96 -30 -128 -72h-2c-32 42 -74.667 66 -128 72h-24
c-56.667 -4.66699 -91.334 -36.667 -104.001 -96l-2 -44c0 -83.333 28.333 -147.666 85 -192.999l-10 -14c-50.667 10.667 -98.334 26 -143.001 46c-54.667 23.333 -82 64 -82 122c0 32.667 10 67.667 30 105c16.667 26.667 25 46.667 25 60c0 12 -7.33301 18 -22 18
c-23.333 0 -35 -16.333 -35 -49c0 -11.333 1.66699 -25 5 -41l-14 -2c-9.33301 24.667 -14 49.334 -14 74.001c0 74.667 24.667 112 74 112c40.667 -2.66699 61 -23.334 61 -62.001c0 -24 -12 -54.333 -36 -91s-36 -67.334 -36 -92.001c0 -40 32 -71.667 96 -95
c-10 23.333 -16.333 54.666 -19 93.999c2 160 48 241.667 138 245c36.667 0 67.334 -9.66699 92.001 -29s46 -48.333 64 -87c17.333 37.333 37.5 66 60.5 86s55.167 30 96.5 30c90.667 -4 136 -94.333 136 -271v-17c0 -204 -92.667 -318 -278 -342
c-156 -20.667 -267.167 -53.5 -333.5 -98.5s-99.5 -105.167 -99.5 -180.5c0 -120 61 -210 183 -270c-18.667 32.667 -28 66.667 -28 102c0 32.667 7.66699 66 23 100c30.667 70 102 106.333 214 109h12c96 -3.33301 166.667 -35.5 212 -96.5s81.333 -149.5 108 -265.5z" />
    <glyph glyph-name="uni1B13" unicode="&#x1b13;" horiz-adv-x="962" 
d="M441 20c54.667 0 82 16.998 82 50.998c-1.33301 22 -24.833 41 -70.5 57s-94.5 25 -146.5 27v-5c0 -29.333 8.66699 -56.166 26 -80.499s44.333 -40.166 81 -47.499zM127 28.998l10.999 1c28.667 6.66699 45 46.334 49 119.001
c-55.333 -8.66699 -85.666 -35.334 -90.999 -80.001c0 -26.667 10.333 -40 31 -40zM448.999 -9.00195c-53.333 0 -94.6689 13.001 -124.002 39.001c-35.333 30.667 -53.666 73.334 -54.999 128.001c-16.667 0 -34.667 -1 -54 -3c-2 -104.667 -31 -157 -87 -157
c-44.667 0 -69 24 -73 72c0 42.667 13.833 77.167 41.5 103.5s57.834 42.166 90.501 47.499v31c-4 64 -23 96 -57 96c-30.667 0 -46 -20.333 -46 -61c0.666992 -25.333 5.66699 -48 15 -68l-17 -6c-25.333 37.333 -38 81.666 -38 132.999c0 61.333 25.667 92 77 92
c61.333 -1.33301 92 -52.333 92 -153v-57c14.667 2.66699 33.667 4.66699 57 6v10c1.33301 129.333 75.333 194.666 222 195.999c146 -1.33301 220.667 -82 224 -242v-67c0 -45.333 7.66699 -69 23 -71c15.333 2 23.333 25.667 24 71v311
c95.333 -7.33301 144.666 -63.666 147.999 -168.999v-273h-30v198c-2 90 -31 138 -87 144v-184c0 -104.667 -18 -157.334 -54 -158.001c-36 0.666992 -54.333 53.334 -55 158.001v30c-1.33301 102.667 -65.333 154 -192 154c-123.333 0 -185 -35.333 -185 -106
c80.667 -1.33301 145.167 -15.5 193.5 -42.5s72.5 -60.833 72.5 -101.5c-2 -30.667 -14.167 -55.167 -36.5 -73.5s-52.166 -27.5 -89.499 -27.5z" />
    <glyph glyph-name="uni1B14" unicode="&#x1b14;" horiz-adv-x="1157" 
d="M442 20c54 0 81 16.332 81 48.999v3c-1.33301 21.333 -24.666 40 -69.999 56s-94.333 25 -147 27c0 -30.667 8.66699 -58.667 26 -84s44.666 -41.666 81.999 -48.999zM1138 159.999c-96.667 -104 -191.331 -158.332 -283.998 -162.999c-110 0 -165.667 53.667 -167 161
v30c-2 102.667 -66.333 154 -193 154c-122.667 0 -184 -35 -184 -105v-2c80.667 -0.666992 145.167 -14.667 193.5 -42s72.5 -61 72.5 -101c-2 -31.333 -14.5 -56 -37.5 -74s-52.5 -27 -88.5 -27c-58.667 0 -102.834 15.333 -132.501 46s-45.167 71 -46.5 121
c-16.667 0 -35.334 -1 -56.001 -3l-1 73c14.667 2.66699 34 4.66699 58 6v10c1.33301 129.333 75.333 194.666 222 195.999c146 -1.33301 220.333 -82 223 -242v-20c1.33301 -56.667 45.333 -85 132 -85c22.667 0 58.5 5.33301 107.5 16s106.167 31.667 171.5 63z
M127.003 29l10.999 1c28.667 6.66699 45 46.334 49 119.001c-55.333 -8.66699 -85.666 -35.334 -90.999 -80.001c0 -26.667 10.333 -40 31 -40zM216.002 155c-2 -104.667 -31.001 -156.998 -87.001 -156.998c-44.667 0 -69 24 -73 72c0 42.667 13.833 77.167 41.5 103.5
s57.834 42.166 90.501 47.499v31c-4 64 -23 96 -57 96c-30.667 0 -46 -20.333 -46 -61c0.666992 -25.333 5.66699 -48 15 -68l-17 -6c-25.333 37.333 -38 81.666 -38 132.999c0 61.333 25.667 92 77 92c61.333 -1.33301 92 -52.333 92 -153v-57z" />
    <glyph glyph-name="uni1B15" unicode="&#x1b15;" horiz-adv-x="872" 
d="M526 -11l-3.99707 12.998c43.333 32 67.333 92.667 72 182c0 99.333 -61 152 -183 158h-12c-105.333 -4.66699 -164.333 -53 -177 -145l-2 -31c0 -59.333 28.333 -111.666 85 -156.999l-10 -14c-50.667 10.667 -98.334 26 -143.001 46c-54.667 23.333 -82 64 -82 122
c0 32.667 10 67.667 30 105c16.667 26.667 25 46.667 25 60c0 12 -7.33301 18 -22 18c-23.333 0 -35 -16.333 -35 -49c0 -11.333 1.66699 -25 5 -41l-14 -2c-9.33301 24.667 -14 49.334 -14 74.001c0 74.667 24.667 112 74 112c40.667 -2.66699 61 -23.334 61 -62.001
c0 -24 -12.167 -54.333 -36.5 -91s-36.5 -67.667 -36.5 -93c0 -39.333 32.333 -70.666 97 -93.999c-10 23.333 -16.333 54.666 -19 93.999c2 160 72.333 241.667 211 245h18c140 -4 210 -88.333 210 -253c-4 -56 -13.333 -101 -28 -135c46.667 23.333 72.667 84.333 78 183
v208c95.333 -7.33301 144.666 -63.666 147.999 -168.999v-273h-30v198c-2 90 -31 138 -87 144v-116c-6.66699 -142 -66.334 -221 -179.001 -237z" />
    </font>
</defs>
</svg>
